<svg fill="none" height="1080" viewBox="0 0 1600 1080" width="1600" xmlns="http://www.w3.org/2000/svg"><path d="m0 0h1600v1080h-1600z" fill="#faf9f8"/><path d="m669 834.5-192-161.5m192 161.5-245-354.5m245 354.5-192-547m192 547v-704.5m0 704.5 258.5-704.5m-258.5 704.5 452-547m-452 547 508.5-354.5m-508.5 354.5 452-161.5m-452 161.5h258.5m-450.5-161.5 450.5 161.5m-450.5-161.5h644m-644 0 700.5-193m-700.5 193 644-385.5m-644 385.5 450.5-543m-450.5 543 192-543m-192 543v-385.5m0 385.5-53-193m0 0 503.5 354.5m-503.5-354.5 697 193m-697-193h753.5m-753.5 0 697-192.5m-697 192.5 503.5-350m-503.5 350 245-350m-245 350 53-192.5m0 0 450.5 547m-450.5-547 644 385.5m-644-385.5 700.5 192.5m-700.5-192.5h644m-644 0 450.5-157.5m-450.5 157.5 192-157.5m0 0 258.5 704.5m-258.5-704.5 452 543m-452-543 508.5 350m-508.5-350 452 157.5m-452-157.5h258.5m0 0v704.5m0-704.5 193.5 543m-193.5-543 250 350m-250-350 193.5 157.5m0 0-193.5 547m193.5-547v385.5m0-385.5 56.5 192.5m0 0-250 354.5m250-354.5-56.5 193m0 0-193.5 161.5" stroke="#c65835" stroke-width="1.5"/><g fill="#faf9f8"><rect height="68" rx="34" width="130" x="603" y="800"/><rect height="68" rx="34" width="130" x="862" y="800"/><rect height="68" rx="34" width="130" x="416" y="639"/><rect height="68" rx="34" width="130" x="358" y="446"/><rect height="68" rx="34" width="130" x="412" y="251"/><rect height="68" rx="34" width="130" x="862" y="93"/><rect height="68" rx="34" width="130" x="603" y="93"/><rect height="68" rx="34" width="130" x="1056" y="251"/><rect height="68" rx="34" width="130" x="1056" y="639"/><rect height="68" rx="34" width="130" x="1111" y="446"/></g><rect fill="#242424" height="45" rx="22.5" width="106" x="615" y="104"/><path d="m643.304 127.227v7.773h-2.548v-13.091h2.446v2.131h.162c.301-.693.773-1.25 1.415-1.671.647-.42 1.463-.63 2.446-.63.892 0 1.673.187 2.344.562.67.369 1.19.921 1.559 1.654.37.732.554 1.639.554 2.718v8.327h-2.548v-8.02c0-.949-.247-1.69-.742-2.224-.494-.54-1.173-.81-2.037-.81-.59 0-1.116.128-1.576.384-.455.255-.816.63-1.083 1.125-.261.488-.392 1.079-.392 1.772zm17.31 8.037c-1.227 0-2.298-.281-3.213-.844-.915-.562-1.625-1.349-2.131-2.36-.505-1.012-.758-2.194-.758-3.546 0-1.358.253-2.545.758-3.562.506-1.017 1.216-1.807 2.131-2.37.915-.562 1.986-.843 3.213-.843s2.298.281 3.213.843c.915.563 1.625 1.353 2.131 2.37.505 1.017.758 2.204.758 3.562 0 1.352-.253 2.534-.758 3.546-.506 1.011-1.216 1.798-2.131 2.36-.915.563-1.986.844-3.213.844zm.009-2.139c.795 0 1.454-.21 1.977-.631.523-.42.909-.98 1.159-1.679.256-.699.383-1.468.383-2.309 0-.836-.127-1.603-.383-2.301-.25-.705-.636-1.27-1.159-1.696-.523-.427-1.182-.64-1.977-.64-.802 0-1.466.213-1.995.64-.523.426-.912.991-1.167 1.696-.25.698-.375 1.465-.375 2.301 0 .841.125 1.61.375 2.309.255.699.644 1.259 1.167 1.679.529.421 1.193.631 1.995.631zm13.838 2.131c-1.057 0-2-.27-2.829-.81-.824-.545-1.472-1.321-1.943-2.327-.466-1.011-.699-2.224-.699-3.639s.235-2.625.707-3.631c.477-1.005 1.131-1.775 1.96-2.309.83-.534 1.77-.801 2.821-.801.813 0 1.466.136 1.961.409.5.267.886.579 1.159.937.278.358.494.674.647.946h.154v-6.486h2.548v17.455h-2.489v-2.037h-.213c-.153.278-.375.597-.664.955-.284.358-.677.67-1.177.937s-1.147.401-1.943.401zm.563-2.174c.733 0 1.352-.193 1.858-.579.511-.392.897-.935 1.159-1.628.267-.693.4-1.5.4-2.42 0-.91-.13-1.705-.392-2.387-.261-.682-.645-1.213-1.15-1.594-.506-.38-1.131-.571-1.875-.571-.767 0-1.406.199-1.918.597-.511.398-.898.94-1.159 1.628-.256.687-.383 1.463-.383 2.327 0 .875.13 1.661.392 2.36.261.699.647 1.253 1.159 1.662.517.404 1.153.605 1.909.605zm15.202 2.182c-1.29 0-2.4-.275-3.332-.826-.926-.557-1.642-1.339-2.148-2.344-.5-1.012-.75-2.196-.75-3.554 0-1.341.25-2.523.75-3.546.506-1.022 1.21-1.821 2.114-2.395.909-.573 1.971-.86 3.187-.86.739 0 1.455.122 2.148.366s1.315.628 1.866 1.151c.552.522.986 1.201 1.304 2.037.319.829.478 1.838.478 3.025v.904h-10.407v-1.91h7.91c0-.67-.137-1.264-.41-1.781-.272-.522-.656-.934-1.15-1.236-.489-.301-1.063-.451-1.722-.451-.716 0-1.341.176-1.875.528-.528.347-.937.801-1.227 1.364-.284.557-.426 1.162-.426 1.815v1.492c0 .875.153 1.619.46 2.233.313.613.747 1.082 1.304 1.406.557.318 1.207.477 1.952.477.483 0 .923-.068 1.321-.204.398-.143.741-.353 1.031-.631.29-.279.511-.622.665-1.031l2.412.434c-.193.71-.54 1.333-1.04 1.867-.494.528-1.116.94-1.866 1.236-.745.289-1.594.434-2.549.434z" fill="#fff"/><rect fill="#242424" height="45" rx="22.5" width="106" x="874" y="104"/><path d="m902.304 127.227v7.773h-2.548v-13.091h2.446v2.131h.162c.301-.693.773-1.25 1.415-1.671.647-.42 1.463-.63 2.446-.63.892 0 1.673.187 2.344.562.67.369 1.19.921 1.559 1.654.37.732.554 1.639.554 2.718v8.327h-2.548v-8.02c0-.949-.247-1.69-.742-2.224-.494-.54-1.173-.81-2.037-.81-.59 0-1.116.128-1.576.384-.455.255-.816.63-1.083 1.125-.261.488-.392 1.079-.392 1.772zm17.31 8.037c-1.227 0-2.298-.281-3.213-.844-.915-.562-1.625-1.349-2.131-2.36-.505-1.012-.758-2.194-.758-3.546 0-1.358.253-2.545.758-3.562.506-1.017 1.216-1.807 2.131-2.37.915-.562 1.986-.843 3.213-.843s2.298.281 3.213.843c.915.563 1.625 1.353 2.131 2.37.505 1.017.758 2.204.758 3.562 0 1.352-.253 2.534-.758 3.546-.506 1.011-1.216 1.798-2.131 2.36-.915.563-1.986.844-3.213.844zm.009-2.139c.795 0 1.454-.21 1.977-.631.523-.42.909-.98 1.159-1.679.256-.699.383-1.468.383-2.309 0-.836-.127-1.603-.383-2.301-.25-.705-.636-1.27-1.159-1.696-.523-.427-1.182-.64-1.977-.64-.802 0-1.466.213-1.995.64-.523.426-.912.991-1.167 1.696-.25.698-.375 1.465-.375 2.301 0 .841.125 1.61.375 2.309.255.699.644 1.259 1.167 1.679.529.421 1.193.631 1.995.631zm13.838 2.131c-1.057 0-2-.27-2.829-.81-.824-.545-1.472-1.321-1.943-2.327-.466-1.011-.699-2.224-.699-3.639s.235-2.625.707-3.631c.477-1.005 1.131-1.775 1.96-2.309.83-.534 1.77-.801 2.821-.801.813 0 1.466.136 1.961.409.5.267.886.579 1.159.937.278.358.494.674.647.946h.154v-6.486h2.548v17.455h-2.489v-2.037h-.213c-.153.278-.375.597-.664.955-.284.358-.677.67-1.177.937s-1.147.401-1.943.401zm.563-2.174c.733 0 1.352-.193 1.858-.579.511-.392.897-.935 1.159-1.628.267-.693.4-1.5.4-2.42 0-.91-.13-1.705-.392-2.387-.261-.682-.645-1.213-1.15-1.594-.506-.38-1.131-.571-1.875-.571-.767 0-1.406.199-1.918.597-.511.398-.898.94-1.159 1.628-.256.687-.383 1.463-.383 2.327 0 .875.13 1.661.392 2.36.261.699.647 1.253 1.159 1.662.517.404 1.153.605 1.909.605zm15.202 2.182c-1.29 0-2.4-.275-3.332-.826-.926-.557-1.642-1.339-2.148-2.344-.5-1.012-.75-2.196-.75-3.554 0-1.341.25-2.523.75-3.546.506-1.022 1.21-1.821 2.114-2.395.909-.573 1.971-.86 3.187-.86.739 0 1.455.122 2.148.366s1.315.628 1.866 1.151c.552.522.986 1.201 1.304 2.037.319.829.478 1.838.478 3.025v.904h-10.407v-1.91h7.91c0-.67-.137-1.264-.41-1.781-.272-.522-.656-.934-1.15-1.236-.489-.301-1.063-.451-1.722-.451-.716 0-1.341.176-1.875.528-.528.347-.937.801-1.227 1.364-.284.557-.426 1.162-.426 1.815v1.492c0 .875.153 1.619.46 2.233.313.613.747 1.082 1.304 1.406.557.318 1.207.477 1.952.477.483 0 .923-.068 1.321-.204.398-.143.741-.353 1.031-.631.29-.279.511-.622.665-1.031l2.412.434c-.193.71-.54 1.333-1.04 1.867-.494.528-1.116.94-1.866 1.236-.745.289-1.594.434-2.549.434z" fill="#fff"/><rect fill="#242424" height="45" rx="22.5" width="106" x="427.5" y="262"/><path d="m455.804 285.227v7.773h-2.548v-13.091h2.446v2.131h.162c.301-.693.773-1.25 1.415-1.671.647-.42 1.463-.63 2.446-.63.892 0 1.673.187 2.344.562.67.369 1.19.921 1.559 1.654.37.732.554 1.639.554 2.718v8.327h-2.548v-8.02c0-.949-.247-1.69-.742-2.224-.494-.54-1.173-.81-2.037-.81-.59 0-1.116.128-1.576.384-.455.255-.816.63-1.083 1.125-.261.488-.392 1.079-.392 1.772zm17.31 8.037c-1.227 0-2.298-.281-3.213-.844-.915-.562-1.625-1.349-2.131-2.36-.505-1.012-.758-2.194-.758-3.546 0-1.358.253-2.545.758-3.562.506-1.017 1.216-1.807 2.131-2.37.915-.562 1.986-.843 3.213-.843s2.298.281 3.213.843c.915.563 1.625 1.353 2.131 2.37.505 1.017.758 2.204.758 3.562 0 1.352-.253 2.534-.758 3.546-.506 1.011-1.216 1.798-2.131 2.36-.915.563-1.986.844-3.213.844zm.009-2.139c.795 0 1.454-.21 1.977-.631.523-.42.909-.98 1.159-1.679.256-.699.383-1.468.383-2.309 0-.836-.127-1.603-.383-2.301-.25-.705-.636-1.27-1.159-1.696-.523-.427-1.182-.64-1.977-.64-.802 0-1.466.213-1.995.64-.523.426-.912.991-1.167 1.696-.25.698-.375 1.465-.375 2.301 0 .841.125 1.61.375 2.309.255.699.644 1.259 1.167 1.679.529.421 1.193.631 1.995.631zm13.838 2.131c-1.057 0-2-.27-2.829-.81-.824-.545-1.472-1.321-1.943-2.327-.466-1.011-.699-2.224-.699-3.639s.235-2.625.707-3.631c.477-1.005 1.131-1.775 1.96-2.309.83-.534 1.77-.801 2.821-.801.813 0 1.466.136 1.961.409.5.267.886.579 1.159.937.278.358.494.674.647.946h.154v-6.486h2.548v17.455h-2.489v-2.037h-.213c-.153.278-.375.597-.664.955-.284.358-.677.67-1.177.937s-1.147.401-1.943.401zm.563-2.174c.733 0 1.352-.193 1.858-.579.511-.392.897-.935 1.159-1.628.267-.693.4-1.5.4-2.42 0-.91-.13-1.705-.392-2.387-.261-.682-.645-1.213-1.15-1.594-.506-.38-1.131-.571-1.875-.571-.767 0-1.406.199-1.918.597-.511.398-.898.94-1.159 1.628-.256.687-.383 1.463-.383 2.327 0 .875.13 1.661.392 2.36.261.699.647 1.253 1.159 1.662.517.404 1.153.605 1.909.605zm15.202 2.182c-1.29 0-2.4-.275-3.332-.826-.926-.557-1.642-1.339-2.148-2.344-.5-1.012-.75-2.196-.75-3.554 0-1.341.25-2.523.75-3.546.506-1.022 1.21-1.821 2.114-2.395.909-.573 1.971-.86 3.187-.86.739 0 1.455.122 2.148.366s1.315.628 1.866 1.151c.552.522.986 1.201 1.304 2.037.319.829.478 1.838.478 3.025v.904h-10.407v-1.91h7.91c0-.67-.137-1.264-.41-1.781-.272-.522-.656-.934-1.15-1.236-.489-.301-1.063-.451-1.722-.451-.716 0-1.341.176-1.875.528-.528.347-.937.801-1.227 1.364-.284.557-.426 1.162-.426 1.815v1.492c0 .875.153 1.619.46 2.233.313.613.747 1.082 1.304 1.406.557.318 1.207.477 1.952.477.483 0 .923-.068 1.321-.204.398-.143.741-.353 1.031-.631.29-.279.511-.622.665-1.031l2.412.434c-.193.71-.54 1.333-1.04 1.867-.494.528-1.116.94-1.866 1.236-.745.289-1.594.434-2.549.434z" fill="#fff"/><rect fill="#242424" height="45" rx="22.5" width="106" x="1068" y="262"/><path d="m1096.3 285.227v7.773h-2.54v-13.091h2.44v2.131h.16c.31-.693.78-1.25 1.42-1.671.65-.42 1.46-.63 2.44-.63.9 0 1.68.187 2.35.562.67.369 1.19.921 1.56 1.654.37.732.55 1.639.55 2.718v8.327h-2.55v-8.02c0-.949-.24-1.69-.74-2.224-.49-.54-1.17-.81-2.03-.81-.6 0-1.12.128-1.58.384-.46.255-.82.63-1.08 1.125-.26.488-.4 1.079-.4 1.772zm17.31 8.037c-1.22 0-2.29-.281-3.21-.844-.91-.562-1.62-1.349-2.13-2.36-.51-1.012-.76-2.194-.76-3.546 0-1.358.25-2.545.76-3.562s1.22-1.807 2.13-2.37c.92-.562 1.99-.843 3.21-.843 1.23 0 2.3.281 3.22.843.91.563 1.62 1.353 2.13 2.37.5 1.017.76 2.204.76 3.562 0 1.352-.26 2.534-.76 3.546-.51 1.011-1.22 1.798-2.13 2.36-.92.563-1.99.844-3.22.844zm.01-2.139c.8 0 1.46-.21 1.98-.631.52-.42.91-.98 1.16-1.679s.38-1.468.38-2.309c0-.836-.13-1.603-.38-2.301-.25-.705-.64-1.27-1.16-1.696-.52-.427-1.18-.64-1.98-.64s-1.46.213-1.99.64c-.52.426-.91.991-1.17 1.696-.25.698-.37 1.465-.37 2.301 0 .841.12 1.61.37 2.309.26.699.65 1.259 1.17 1.679.53.421 1.19.631 1.99.631zm13.84 2.131c-1.06 0-2-.27-2.83-.81-.82-.545-1.47-1.321-1.94-2.327-.47-1.011-.7-2.224-.7-3.639s.24-2.625.71-3.631c.47-1.005 1.13-1.775 1.96-2.309s1.77-.801 2.82-.801c.81 0 1.46.136 1.96.409.5.267.88.579 1.16.937s.49.674.65.946h.15v-6.486h2.55v17.455h-2.49v-2.037h-.21c-.16.278-.38.597-.67.955-.28.358-.68.67-1.18.937s-1.14.401-1.94.401zm.56-2.174c.74 0 1.36-.193 1.86-.579.51-.392.9-.935 1.16-1.628.27-.693.4-1.5.4-2.42 0-.91-.13-1.705-.39-2.387s-.65-1.213-1.15-1.594c-.51-.38-1.13-.571-1.88-.571-.76 0-1.4.199-1.91.597-.52.398-.9.94-1.16 1.628-.26.687-.39 1.463-.39 2.327 0 .875.13 1.661.4 2.36.26.699.64 1.253 1.15 1.662.52.404 1.16.605 1.91.605zm15.21 2.182c-1.29 0-2.4-.275-3.34-.826-.92-.557-1.64-1.339-2.14-2.344-.5-1.012-.75-2.196-.75-3.554 0-1.341.25-2.523.75-3.546.5-1.022 1.21-1.821 2.11-2.395.91-.573 1.97-.86 3.19-.86.74 0 1.45.122 2.14.366.7.244 1.32.628 1.87 1.151.55.522.99 1.201 1.31 2.037.31.829.47 1.838.47 3.025v.904h-10.4v-1.91h7.91c0-.67-.14-1.264-.41-1.781-.28-.522-.66-.934-1.15-1.236-.49-.301-1.07-.451-1.73-.451-.71 0-1.34.176-1.87.528-.53.347-.94.801-1.23 1.364-.28.557-.42 1.162-.42 1.815v1.492c0 .875.15 1.619.46 2.233.31.613.74 1.082 1.3 1.406.56.318 1.21.477 1.95.477.48 0 .93-.068 1.32-.204.4-.143.74-.353 1.03-.631.29-.279.52-.622.67-1.031l2.41.434c-.19.71-.54 1.333-1.04 1.867-.49.528-1.12.94-1.87 1.236-.74.289-1.59.434-2.54.434z" fill="#fff"/><rect fill="#242424" height="45" rx="22.5" width="106" x="1122.5" y="457"/><path d="m1150.8 480.227v7.773h-2.54v-13.091h2.44v2.131h.16c.31-.693.78-1.25 1.42-1.671.65-.42 1.46-.63 2.44-.63.9 0 1.68.187 2.35.562.67.369 1.19.921 1.56 1.654.37.732.55 1.639.55 2.718v8.327h-2.55v-8.02c0-.949-.24-1.69-.74-2.224-.49-.54-1.17-.81-2.03-.81-.6 0-1.12.128-1.58.384-.46.255-.82.63-1.08 1.125-.26.488-.4 1.079-.4 1.772zm17.31 8.037c-1.22 0-2.29-.281-3.21-.844-.91-.562-1.62-1.349-2.13-2.36-.51-1.012-.76-2.194-.76-3.546 0-1.358.25-2.545.76-3.562s1.22-1.807 2.13-2.37c.92-.562 1.99-.843 3.21-.843 1.23 0 2.3.281 3.22.843.91.563 1.62 1.353 2.13 2.37.5 1.017.76 2.204.76 3.562 0 1.352-.26 2.534-.76 3.546-.51 1.011-1.22 1.798-2.13 2.36-.92.563-1.99.844-3.22.844zm.01-2.139c.8 0 1.46-.21 1.98-.631.52-.42.91-.98 1.16-1.679s.38-1.468.38-2.309c0-.836-.13-1.603-.38-2.301-.25-.705-.64-1.27-1.16-1.696-.52-.427-1.18-.64-1.98-.64s-1.46.213-1.99.64c-.52.426-.91.991-1.17 1.696-.25.698-.37 1.465-.37 2.301 0 .841.12 1.61.37 2.309.26.699.65 1.259 1.17 1.679.53.421 1.19.631 1.99.631zm13.84 2.131c-1.06 0-2-.27-2.83-.81-.82-.545-1.47-1.321-1.94-2.327-.47-1.011-.7-2.224-.7-3.639s.24-2.625.71-3.631c.47-1.005 1.13-1.775 1.96-2.309s1.77-.801 2.82-.801c.81 0 1.46.136 1.96.409.5.267.88.579 1.16.937s.49.674.65.946h.15v-6.486h2.55v17.455h-2.49v-2.037h-.21c-.16.278-.38.597-.67.955-.28.358-.68.67-1.18.937s-1.14.401-1.94.401zm.56-2.174c.74 0 1.36-.193 1.86-.579.51-.392.9-.935 1.16-1.628.27-.693.4-1.5.4-2.42 0-.91-.13-1.705-.39-2.387s-.65-1.213-1.15-1.594c-.51-.38-1.13-.571-1.88-.571-.76 0-1.4.199-1.91.597-.52.398-.9.94-1.16 1.628-.26.687-.39 1.463-.39 2.327 0 .875.13 1.661.4 2.36.26.699.64 1.253 1.15 1.662.52.404 1.16.605 1.91.605zm15.21 2.182c-1.29 0-2.4-.275-3.34-.826-.92-.557-1.64-1.339-2.14-2.344-.5-1.012-.75-2.196-.75-3.554 0-1.341.25-2.523.75-3.546.5-1.022 1.21-1.821 2.11-2.395.91-.573 1.97-.86 3.19-.86.74 0 1.45.122 2.14.366.7.244 1.32.628 1.87 1.151.55.522.99 1.201 1.31 2.037.31.829.47 1.838.47 3.025v.904h-10.4v-1.91h7.91c0-.67-.14-1.264-.41-1.781-.28-.522-.66-.934-1.15-1.236-.49-.301-1.07-.451-1.73-.451-.71 0-1.34.176-1.87.528-.53.347-.94.801-1.23 1.364-.28.557-.42 1.162-.42 1.815v1.492c0 .875.15 1.619.46 2.233.31.613.74 1.082 1.3 1.406.56.318 1.21.477 1.95.477.48 0 .93-.068 1.32-.204.4-.143.74-.353 1.03-.631.29-.279.52-.622.67-1.031l2.41.434c-.19.71-.54 1.333-1.04 1.867-.49.528-1.12.94-1.87 1.236-.74.289-1.59.434-2.54.434z" fill="#fff"/><rect fill="#242424" height="45" rx="22.5" width="106" x="1068" y="653"/><path d="m1096.3 676.227v7.773h-2.54v-13.091h2.44v2.131h.16c.31-.693.78-1.25 1.42-1.671.65-.42 1.46-.63 2.44-.63.9 0 1.68.187 2.35.562.67.369 1.19.921 1.56 1.654.37.732.55 1.639.55 2.718v8.327h-2.55v-8.02c0-.949-.24-1.69-.74-2.224-.49-.54-1.17-.81-2.03-.81-.6 0-1.12.128-1.58.384-.46.255-.82.63-1.08 1.125-.26.488-.4 1.079-.4 1.772zm17.31 8.037c-1.22 0-2.29-.281-3.21-.844-.91-.562-1.62-1.349-2.13-2.36-.51-1.012-.76-2.194-.76-3.546 0-1.358.25-2.545.76-3.562s1.22-1.807 2.13-2.37c.92-.562 1.99-.843 3.21-.843 1.23 0 2.3.281 3.22.843.91.563 1.62 1.353 2.13 2.37.5 1.017.76 2.204.76 3.562 0 1.352-.26 2.534-.76 3.546-.51 1.011-1.22 1.798-2.13 2.36-.92.563-1.99.844-3.22.844zm.01-2.139c.8 0 1.46-.21 1.98-.631.52-.42.91-.98 1.16-1.679s.38-1.468.38-2.309c0-.836-.13-1.603-.38-2.301-.25-.705-.64-1.27-1.16-1.696-.52-.427-1.18-.64-1.98-.64s-1.46.213-1.99.64c-.52.426-.91.991-1.17 1.696-.25.698-.37 1.465-.37 2.301 0 .841.12 1.61.37 2.309.26.699.65 1.259 1.17 1.679.53.421 1.19.631 1.99.631zm13.84 2.131c-1.06 0-2-.27-2.83-.81-.82-.545-1.47-1.321-1.94-2.327-.47-1.011-.7-2.224-.7-3.639s.24-2.625.71-3.631c.47-1.005 1.13-1.775 1.96-2.309s1.77-.801 2.82-.801c.81 0 1.46.136 1.96.409.5.267.88.579 1.16.937s.49.674.65.946h.15v-6.486h2.55v17.455h-2.49v-2.037h-.21c-.16.278-.38.597-.67.955-.28.358-.68.67-1.18.937s-1.14.401-1.94.401zm.56-2.174c.74 0 1.36-.193 1.86-.579.51-.392.9-.935 1.16-1.628.27-.693.4-1.5.4-2.42 0-.91-.13-1.705-.39-2.387s-.65-1.213-1.15-1.594c-.51-.38-1.13-.571-1.88-.571-.76 0-1.4.199-1.91.597-.52.398-.9.94-1.16 1.628-.26.687-.39 1.463-.39 2.327 0 .875.13 1.661.4 2.36.26.699.64 1.253 1.15 1.662.52.404 1.16.605 1.91.605zm15.21 2.182c-1.29 0-2.4-.275-3.34-.826-.92-.557-1.64-1.339-2.14-2.344-.5-1.012-.75-2.196-.75-3.554 0-1.341.25-2.523.75-3.546.5-1.022 1.21-1.821 2.11-2.395.91-.573 1.97-.86 3.19-.86.74 0 1.45.122 2.14.366.7.244 1.32.628 1.87 1.151.55.522.99 1.201 1.31 2.037.31.829.47 1.838.47 3.025v.904h-10.4v-1.91h7.91c0-.67-.14-1.264-.41-1.781-.28-.522-.66-.934-1.15-1.236-.49-.301-1.07-.451-1.73-.451-.71 0-1.34.176-1.87.528-.53.347-.94.801-1.23 1.364-.28.557-.42 1.162-.42 1.815v1.492c0 .875.15 1.619.46 2.233.31.613.74 1.082 1.3 1.406.56.318 1.21.477 1.95.477.48 0 .93-.068 1.32-.204.4-.143.74-.353 1.03-.631.29-.279.52-.622.67-1.031l2.41.434c-.19.71-.54 1.333-1.04 1.867-.49.528-1.12.94-1.87 1.236-.74.289-1.59.434-2.54.434z" fill="#fff"/><rect fill="#242424" height="45" rx="22.5" width="106" x="427.5" y="653"/><path d="m455.804 676.227v7.773h-2.548v-13.091h2.446v2.131h.162c.301-.693.773-1.25 1.415-1.671.647-.42 1.463-.63 2.446-.63.892 0 1.673.187 2.344.562.67.369 1.19.921 1.559 1.654.37.732.554 1.639.554 2.718v8.327h-2.548v-8.02c0-.949-.247-1.69-.742-2.224-.494-.54-1.173-.81-2.037-.81-.59 0-1.116.128-1.576.384-.455.255-.816.63-1.083 1.125-.261.488-.392 1.079-.392 1.772zm17.31 8.037c-1.227 0-2.298-.281-3.213-.844-.915-.562-1.625-1.349-2.131-2.36-.505-1.012-.758-2.194-.758-3.546 0-1.358.253-2.545.758-3.562.506-1.017 1.216-1.807 2.131-2.37.915-.562 1.986-.843 3.213-.843s2.298.281 3.213.843c.915.563 1.625 1.353 2.131 2.37.505 1.017.758 2.204.758 3.562 0 1.352-.253 2.534-.758 3.546-.506 1.011-1.216 1.798-2.131 2.36-.915.563-1.986.844-3.213.844zm.009-2.139c.795 0 1.454-.21 1.977-.631.523-.42.909-.98 1.159-1.679.256-.699.383-1.468.383-2.309 0-.836-.127-1.603-.383-2.301-.25-.705-.636-1.27-1.159-1.696-.523-.427-1.182-.64-1.977-.64-.802 0-1.466.213-1.995.64-.523.426-.912.991-1.167 1.696-.25.698-.375 1.465-.375 2.301 0 .841.125 1.61.375 2.309.255.699.644 1.259 1.167 1.679.529.421 1.193.631 1.995.631zm13.838 2.131c-1.057 0-2-.27-2.829-.81-.824-.545-1.472-1.321-1.943-2.327-.466-1.011-.699-2.224-.699-3.639s.235-2.625.707-3.631c.477-1.005 1.131-1.775 1.96-2.309.83-.534 1.77-.801 2.821-.801.813 0 1.466.136 1.961.409.5.267.886.579 1.159.937.278.358.494.674.647.946h.154v-6.486h2.548v17.455h-2.489v-2.037h-.213c-.153.278-.375.597-.664.955-.284.358-.677.67-1.177.937s-1.147.401-1.943.401zm.563-2.174c.733 0 1.352-.193 1.858-.579.511-.392.897-.935 1.159-1.628.267-.693.4-1.5.4-2.42 0-.91-.13-1.705-.392-2.387-.261-.682-.645-1.213-1.15-1.594-.506-.38-1.131-.571-1.875-.571-.767 0-1.406.199-1.918.597-.511.398-.898.94-1.159 1.628-.256.687-.383 1.463-.383 2.327 0 .875.13 1.661.392 2.36.261.699.647 1.253 1.159 1.662.517.404 1.153.605 1.909.605zm15.202 2.182c-1.29 0-2.4-.275-3.332-.826-.926-.557-1.642-1.339-2.148-2.344-.5-1.012-.75-2.196-.75-3.554 0-1.341.25-2.523.75-3.546.506-1.022 1.21-1.821 2.114-2.395.909-.573 1.971-.86 3.187-.86.739 0 1.455.122 2.148.366s1.315.628 1.866 1.151c.552.522.986 1.201 1.304 2.037.319.829.478 1.838.478 3.025v.904h-10.407v-1.91h7.91c0-.67-.137-1.264-.41-1.781-.272-.522-.656-.934-1.15-1.236-.489-.301-1.063-.451-1.722-.451-.716 0-1.341.176-1.875.528-.528.347-.937.801-1.227 1.364-.284.557-.426 1.162-.426 1.815v1.492c0 .875.153 1.619.46 2.233.313.613.747 1.082 1.304 1.406.557.318 1.207.477 1.952.477.483 0 .923-.068 1.321-.204.398-.143.741-.353 1.031-.631.29-.279.511-.622.665-1.031l2.412.434c-.193.71-.54 1.333-1.04 1.867-.494.528-1.116.94-1.866 1.236-.745.289-1.594.434-2.549.434z" fill="#fff"/><rect fill="#242424" height="45" rx="22.5" width="106" x="370.5" y="457"/><path d="m398.804 480.227v7.773h-2.548v-13.091h2.446v2.131h.162c.301-.693.773-1.25 1.415-1.671.647-.42 1.463-.63 2.446-.63.892 0 1.673.187 2.344.562.67.369 1.19.921 1.559 1.654.37.732.554 1.639.554 2.718v8.327h-2.548v-8.02c0-.949-.247-1.69-.742-2.224-.494-.54-1.173-.81-2.037-.81-.59 0-1.116.128-1.576.384-.455.255-.816.63-1.083 1.125-.261.488-.392 1.079-.392 1.772zm17.31 8.037c-1.227 0-2.298-.281-3.213-.844-.915-.562-1.625-1.349-2.131-2.36-.505-1.012-.758-2.194-.758-3.546 0-1.358.253-2.545.758-3.562.506-1.017 1.216-1.807 2.131-2.37.915-.562 1.986-.843 3.213-.843s2.298.281 3.213.843c.915.563 1.625 1.353 2.131 2.37.505 1.017.758 2.204.758 3.562 0 1.352-.253 2.534-.758 3.546-.506 1.011-1.216 1.798-2.131 2.36-.915.563-1.986.844-3.213.844zm.009-2.139c.795 0 1.454-.21 1.977-.631.523-.42.909-.98 1.159-1.679.256-.699.383-1.468.383-2.309 0-.836-.127-1.603-.383-2.301-.25-.705-.636-1.27-1.159-1.696-.523-.427-1.182-.64-1.977-.64-.802 0-1.466.213-1.995.64-.523.426-.912.991-1.167 1.696-.25.698-.375 1.465-.375 2.301 0 .841.125 1.61.375 2.309.255.699.644 1.259 1.167 1.679.529.421 1.193.631 1.995.631zm13.838 2.131c-1.057 0-2-.27-2.829-.81-.824-.545-1.472-1.321-1.943-2.327-.466-1.011-.699-2.224-.699-3.639s.235-2.625.707-3.631c.477-1.005 1.131-1.775 1.96-2.309.83-.534 1.77-.801 2.821-.801.813 0 1.466.136 1.961.409.5.267.886.579 1.159.937.278.358.494.674.647.946h.154v-6.486h2.548v17.455h-2.489v-2.037h-.213c-.153.278-.375.597-.664.955-.284.358-.677.67-1.177.937s-1.147.401-1.943.401zm.563-2.174c.733 0 1.352-.193 1.858-.579.511-.392.897-.935 1.159-1.628.267-.693.4-1.5.4-2.42 0-.91-.13-1.705-.392-2.387-.261-.682-.645-1.213-1.15-1.594-.506-.38-1.131-.571-1.875-.571-.767 0-1.406.199-1.918.597-.511.398-.898.94-1.159 1.628-.256.687-.383 1.463-.383 2.327 0 .875.13 1.661.392 2.36.261.699.647 1.253 1.159 1.662.517.404 1.153.605 1.909.605zm15.202 2.182c-1.29 0-2.4-.275-3.332-.826-.926-.557-1.642-1.339-2.148-2.344-.5-1.012-.75-2.196-.75-3.554 0-1.341.25-2.523.75-3.546.506-1.022 1.21-1.821 2.114-2.395.909-.573 1.971-.86 3.187-.86.739 0 1.455.122 2.148.366s1.315.628 1.866 1.151c.552.522.986 1.201 1.304 2.037.319.829.478 1.838.478 3.025v.904h-10.407v-1.91h7.91c0-.67-.137-1.264-.41-1.781-.272-.522-.656-.934-1.15-1.236-.489-.301-1.063-.451-1.722-.451-.716 0-1.341.176-1.875.528-.528.347-.937.801-1.227 1.364-.284.557-.426 1.162-.426 1.815v1.492c0 .875.153 1.619.46 2.233.313.613.747 1.082 1.304 1.406.557.318 1.207.477 1.952.477.483 0 .923-.068 1.321-.204.398-.143.741-.353 1.031-.631.29-.279.511-.622.665-1.031l2.412.434c-.193.71-.54 1.333-1.04 1.867-.494.528-1.116.94-1.866 1.236-.745.289-1.594.434-2.549.434z" fill="#fff"/><rect fill="#242424" height="45" rx="22.5" width="106" x="615" y="812"/><path d="m643.304 835.227v7.773h-2.548v-13.091h2.446v2.131h.162c.301-.693.773-1.25 1.415-1.671.647-.42 1.463-.63 2.446-.63.892 0 1.673.187 2.344.562.67.369 1.19.921 1.559 1.654.37.732.554 1.639.554 2.718v8.327h-2.548v-8.02c0-.949-.247-1.69-.742-2.224-.494-.54-1.173-.81-2.037-.81-.59 0-1.116.128-1.576.384-.455.255-.816.63-1.083 1.125-.261.488-.392 1.079-.392 1.772zm17.31 8.037c-1.227 0-2.298-.281-3.213-.844-.915-.562-1.625-1.349-2.131-2.36-.505-1.012-.758-2.194-.758-3.546 0-1.358.253-2.545.758-3.562.506-1.017 1.216-1.807 2.131-2.37.915-.562 1.986-.843 3.213-.843s2.298.281 3.213.843c.915.563 1.625 1.353 2.131 2.37.505 1.017.758 2.204.758 3.562 0 1.352-.253 2.534-.758 3.546-.506 1.011-1.216 1.798-2.131 2.36-.915.563-1.986.844-3.213.844zm.009-2.139c.795 0 1.454-.21 1.977-.631.523-.42.909-.98 1.159-1.679.256-.699.383-1.468.383-2.309 0-.836-.127-1.603-.383-2.301-.25-.705-.636-1.27-1.159-1.696-.523-.427-1.182-.64-1.977-.64-.802 0-1.466.213-1.995.64-.523.426-.912.991-1.167 1.696-.25.698-.375 1.465-.375 2.301 0 .841.125 1.61.375 2.309.255.699.644 1.259 1.167 1.679.529.421 1.193.631 1.995.631zm13.838 2.131c-1.057 0-2-.27-2.829-.81-.824-.545-1.472-1.321-1.943-2.327-.466-1.011-.699-2.224-.699-3.639s.235-2.625.707-3.631c.477-1.005 1.131-1.775 1.96-2.309.83-.534 1.77-.801 2.821-.801.813 0 1.466.136 1.961.409.5.267.886.579 1.159.937.278.358.494.674.647.946h.154v-6.486h2.548v17.455h-2.489v-2.037h-.213c-.153.278-.375.597-.664.955-.284.358-.677.67-1.177.937s-1.147.401-1.943.401zm.563-2.174c.733 0 1.352-.193 1.858-.579.511-.392.897-.935 1.159-1.628.267-.693.4-1.5.4-2.42 0-.91-.13-1.705-.392-2.387-.261-.682-.645-1.213-1.15-1.594-.506-.38-1.131-.571-1.875-.571-.767 0-1.406.199-1.918.597-.511.398-.898.94-1.159 1.628-.256.687-.383 1.463-.383 2.327 0 .875.13 1.661.392 2.36.261.699.647 1.253 1.159 1.662.517.404 1.153.605 1.909.605zm15.202 2.182c-1.29 0-2.4-.275-3.332-.826-.926-.557-1.642-1.339-2.148-2.344-.5-1.012-.75-2.196-.75-3.554 0-1.341.25-2.523.75-3.546.506-1.022 1.21-1.821 2.114-2.395.909-.573 1.971-.86 3.187-.86.739 0 1.455.122 2.148.366s1.315.628 1.866 1.151c.552.522.986 1.201 1.304 2.037.319.829.478 1.838.478 3.025v.904h-10.407v-1.91h7.91c0-.67-.137-1.264-.41-1.781-.272-.522-.656-.934-1.15-1.236-.489-.301-1.063-.451-1.722-.451-.716 0-1.341.176-1.875.528-.528.347-.937.801-1.227 1.364-.284.557-.426 1.162-.426 1.815v1.492c0 .875.153 1.619.46 2.233.313.613.747 1.082 1.304 1.406.557.318 1.207.477 1.952.477.483 0 .923-.068 1.321-.204.398-.143.741-.353 1.031-.631.29-.279.511-.622.665-1.031l2.412.434c-.193.71-.54 1.333-1.04 1.867-.494.528-1.116.94-1.866 1.236-.745.289-1.594.434-2.549.434z" fill="#fff"/><rect fill="#242424" height="45" rx="22.5" width="106" x="874" y="812"/><path d="m902.304 835.227v7.773h-2.548v-13.091h2.446v2.131h.162c.301-.693.773-1.25 1.415-1.671.647-.42 1.463-.63 2.446-.63.892 0 1.673.187 2.344.562.67.369 1.19.921 1.559 1.654.37.732.554 1.639.554 2.718v8.327h-2.548v-8.02c0-.949-.247-1.69-.742-2.224-.494-.54-1.173-.81-2.037-.81-.59 0-1.116.128-1.576.384-.455.255-.816.63-1.083 1.125-.261.488-.392 1.079-.392 1.772zm17.31 8.037c-1.227 0-2.298-.281-3.213-.844-.915-.562-1.625-1.349-2.131-2.36-.505-1.012-.758-2.194-.758-3.546 0-1.358.253-2.545.758-3.562.506-1.017 1.216-1.807 2.131-2.37.915-.562 1.986-.843 3.213-.843s2.298.281 3.213.843c.915.563 1.625 1.353 2.131 2.37.505 1.017.758 2.204.758 3.562 0 1.352-.253 2.534-.758 3.546-.506 1.011-1.216 1.798-2.131 2.36-.915.563-1.986.844-3.213.844zm.009-2.139c.795 0 1.454-.21 1.977-.631.523-.42.909-.98 1.159-1.679.256-.699.383-1.468.383-2.309 0-.836-.127-1.603-.383-2.301-.25-.705-.636-1.27-1.159-1.696-.523-.427-1.182-.64-1.977-.64-.802 0-1.466.213-1.995.64-.523.426-.912.991-1.167 1.696-.25.698-.375 1.465-.375 2.301 0 .841.125 1.61.375 2.309.255.699.644 1.259 1.167 1.679.529.421 1.193.631 1.995.631zm13.838 2.131c-1.057 0-2-.27-2.829-.81-.824-.545-1.472-1.321-1.943-2.327-.466-1.011-.699-2.224-.699-3.639s.235-2.625.707-3.631c.477-1.005 1.131-1.775 1.96-2.309.83-.534 1.77-.801 2.821-.801.813 0 1.466.136 1.961.409.5.267.886.579 1.159.937.278.358.494.674.647.946h.154v-6.486h2.548v17.455h-2.489v-2.037h-.213c-.153.278-.375.597-.664.955-.284.358-.677.67-1.177.937s-1.147.401-1.943.401zm.563-2.174c.733 0 1.352-.193 1.858-.579.511-.392.897-.935 1.159-1.628.267-.693.4-1.5.4-2.42 0-.91-.13-1.705-.392-2.387-.261-.682-.645-1.213-1.15-1.594-.506-.38-1.131-.571-1.875-.571-.767 0-1.406.199-1.918.597-.511.398-.898.94-1.159 1.628-.256.687-.383 1.463-.383 2.327 0 .875.13 1.661.392 2.36.261.699.647 1.253 1.159 1.662.517.404 1.153.605 1.909.605zm15.202 2.182c-1.29 0-2.4-.275-3.332-.826-.926-.557-1.642-1.339-2.148-2.344-.5-1.012-.75-2.196-.75-3.554 0-1.341.25-2.523.75-3.546.506-1.022 1.21-1.821 2.114-2.395.909-.573 1.971-.86 3.187-.86.739 0 1.455.122 2.148.366s1.315.628 1.866 1.151c.552.522.986 1.201 1.304 2.037.319.829.478 1.838.478 3.025v.904h-10.407v-1.91h7.91c0-.67-.137-1.264-.41-1.781-.272-.522-.656-.934-1.15-1.236-.489-.301-1.063-.451-1.722-.451-.716 0-1.341.176-1.875.528-.528.347-.937.801-1.227 1.364-.284.557-.426 1.162-.426 1.815v1.492c0 .875.153 1.619.46 2.233.313.613.747 1.082 1.304 1.406.557.318 1.207.477 1.952.477.483 0 .923-.068 1.321-.204.398-.143.741-.353 1.031-.631.29-.279.511-.622.665-1.031l2.412.434c-.193.71-.54 1.333-1.04 1.867-.494.528-1.116.94-1.866 1.236-.745.289-1.594.434-2.549.434z" fill="#fff"/><path d="m352.869 971h2.735v-8.736c0-2.407 1.531-4.006 3.814-4.006 2.201 0 3.227 1.203 3.227 3.76v8.982h2.748v-9.666c0-3.582-1.75-5.523-4.991-5.523-2.228 0-3.91 1.039-4.689 2.884h-.192v-2.597h-2.652zm34.617 0h2.735v-8.736c0-2.407 1.531-4.006 3.814-4.006 2.201 0 3.227 1.203 3.227 3.76v8.982h2.748v-9.666c0-3.582-1.75-5.523-4.99-5.523-2.229 0-3.911 1.039-4.69 2.884h-.191v-2.597h-2.653z" fill="#242424"/><path d="m373.186 961.129c0 4.758 1.449 8.9 4.21 12.017h2.776c-2.871-4.115-4.061-7.628-4.061-12.017 0-4.375 1.19-7.902 4.061-12.018h-2.776c-2.761 3.118-4.21 7.26-4.21 12.018zm45.103 2.365v-2.488h-14.465v2.488zm17.582 7.506v-2.42h-5.4v-17.309h-2.789l-5.715 3.747v2.871l5.482-3.569h.219v14.26h-5.66v2.42zm13.057-9.871c0-4.758-1.449-8.9-4.211-12.018h-2.776c2.871 4.116 4.061 7.643 4.061 12.018 0 4.389-1.19 7.902-4.061 12.017h2.776c2.762-3.117 4.211-7.259 4.211-12.017zm38.595-.766v-2.666h-14.464v2.666zm0 6.44v-2.666h-14.464v2.666z" fill="#9f9995"/><path d="m507.963 957.67c0 3.637 2.557 6.275 6.084 6.275 1.244 0 2.57-.533 3.199-1.326l.233.096c-.137.246-.274.465-.739 1.107l-5.25 7.178h3.24c.247-.314 4.02-5.551 4.348-6.043 1.942-2.816 2.748-4.949 2.748-7.219 0-4.033-2.871-6.877-6.931-6.877-4.006 0-6.932 2.885-6.932 6.809zm6.932-4.361c2.365 0 4.156 1.832 4.156 4.238s-1.791 4.238-4.156 4.238c-2.366 0-4.157-1.832-4.157-4.238s1.791-4.238 4.157-4.238zm17.335 18.129c4.416 0 6.877-3.678 6.877-10.295 0-6.631-2.461-10.309-6.877-10.309s-6.876 3.678-6.876 10.309c0 6.617 2.46 10.295 6.876 10.295zm-4.074-10.295c0-5.155 1.408-7.875 4.074-7.875 1.778 0 2.995 1.216 3.61 3.554l-7.629 6.016c-.041-.533-.055-1.094-.055-1.695zm4.074 7.875c-1.777 0-2.994-1.217-3.609-3.541l7.615-6.057c.041.547.055 1.107.055 1.723 0 5.14-1.408 7.875-4.061 7.875zm34.686-10.09 2.666 12.072h2.611l3.295-19.729h-2.652l-1.066 7.602-1.067 8.107h-.178l-2.474-11.197h-2.434l-2.474 11.197h-.178l-1.067-8.107-1.066-7.602h-2.652l3.295 19.729h2.611l2.666-12.072zm17.473-6.317c1.23 0 2.119-.847 2.119-2.023 0-1.19-.889-2.037-2.119-2.037-1.217 0-2.119.847-2.119 2.037 0 1.176.902 2.023 2.119 2.023zm6.289 18.389v-2.215h-4.813v-12.687h-7.588v2.214h4.909v10.473h-5.018v2.215zm10.281-6.645c0-3.65 1.873-5.742 5.236-5.742.821 0 1.791.178 2.461.424v-3.008c-.492-.205-1.299-.314-2.146-.314-2.858 0-4.594 1.381-5.182 4.183h-.383v-3.8h-5.892v2.105h3.24v10.692h-2.953v2.105h10.144v-2.105h-4.525zm21.588 2.707c-.369 1.217-1.695 1.969-3.459 1.969-2.352 0-3.869-1.613-3.869-4.129v-.67h9.994v-1.613c0-4.238-2.365-6.808-6.262-6.808-3.869 0-6.426 2.584-6.426 6.507v2.27c0 4.238 2.393 6.699 6.577 6.699 3.212 0 5.673-1.723 6.07-4.225zm-3.623-9.009c2.256 0 3.596 1.599 3.596 4.252h-7.301c0-2.666 1.394-4.252 3.705-4.252zm21.519 6.795c0 2.447-1.545 3.951-4.047 3.951-2.98 0-4.525-1.996-4.525-5.838v-3.65c0-3.829 1.545-5.838 4.498-5.838 2.338 0 3.979 1.627 4.088 4.074h2.871c-.096-4.143-2.721-6.686-6.904-6.686-4.703 0-7.424 3.104-7.424 8.45v3.65c0 5.346 2.721 8.449 7.424 8.449 4.101 0 6.904-2.584 6.904-6.398v-4.17h-7.164v2.297h4.279zm19.196-8.75h-2.735v8.736c0 2.406-1.531 4.006-3.814 4.006-2.201 0-3.227-1.203-3.227-3.746v-8.996h-2.748v9.666c0 3.582 1.75 5.523 4.99 5.523 2.229 0 3.911-1.039 4.69-2.871h.191v2.584h2.653zm9.392 15.148c2.106 0 3.705-.875 4.416-2.406h.26v2.174h2.611v-10.186c0-3.131-2.05-4.935-5.646-4.935-3.199 0-5.537 1.668-5.811 4.128h2.68c.355-1.175 1.49-1.859 3.076-1.859 1.914 0 2.981.957 2.981 2.666v1.313l-3.91.205c-3.473.205-5.387 1.763-5.387 4.416 0 2.693 1.887 4.484 4.73 4.484zm.848-2.283c-1.75 0-2.844-.889-2.844-2.324 0-1.45 1.039-2.27 3.022-2.379l3.541-.178v1.572c0 1.901-1.586 3.309-3.719 3.309zm17.623-4.608c0-3.65 1.873-5.742 5.236-5.742.821 0 1.791.178 2.461.424v-3.008c-.492-.205-1.299-.314-2.146-.314-2.858 0-4.594 1.381-5.182 4.183h-.383v-3.8h-5.892v2.105h3.24v10.692h-2.953v2.105h10.144v-2.105h-4.525zm16.652 6.891c2.147 0 3.678-.916 4.389-2.598h.26v2.352h2.748v-20.713h-2.817v8.176h-.259c-.602-1.668-2.174-2.611-4.321-2.611-3.431 0-5.619 2.447-5.619 6.343v2.707c0 3.897 2.188 6.344 5.619 6.344zm.903-2.434c-2.297 0-3.746-1.613-3.746-4.169v-2.229c0-2.557 1.449-4.184 3.746-4.184s3.746 1.614 3.746 4.184v2.229c0 2.556-1.449 4.169-3.746 4.169zm38.65-1.75c-.369 1.217-1.695 1.969-3.459 1.969-2.352 0-3.869-1.613-3.869-4.129v-.67h9.994v-1.613c0-4.238-2.365-6.808-6.262-6.808-3.869 0-6.425 2.584-6.425 6.507v2.27c0 4.238 2.392 6.699 6.576 6.699 3.213 0 5.674-1.723 6.07-4.225zm-3.623-9.009c2.256 0 3.596 1.599 3.596 4.252h-7.301c0-2.666 1.394-4.252 3.705-4.252zm10.883 12.947h2.734v-8.736c0-2.407 1.531-4.006 3.815-4.006 2.201 0 3.226 1.203 3.226 3.76v8.982h2.748v-9.666c0-3.582-1.75-5.523-4.99-5.523-2.229 0-3.91 1.039-4.689 2.884h-.192v-2.597h-2.652zm22.422.246c2.146 0 3.677-.916 4.388-2.598h.26v2.352h2.748v-20.713h-2.816v8.176h-.26c-.602-1.668-2.174-2.611-4.32-2.611-3.432 0-5.619 2.447-5.619 6.343v2.707c0 3.897 2.187 6.344 5.619 6.344zm.902-2.434c-2.297 0-3.746-1.613-3.746-4.169v-2.229c0-2.557 1.449-4.184 3.746-4.184s3.746 1.614 3.746 4.184v2.229c0 2.556-1.449 4.169-3.746 4.169zm18.717-12.947c-2.16 0-3.692.903-4.389 2.598h-.26v-2.365h-2.748v19.906h2.817v-7.369h.26c.601 1.668 2.16 2.611 4.32 2.611 3.431 0 5.619-2.447 5.619-6.33v-2.721c0-3.883-2.188-6.33-5.619-6.33zm-.916 2.434c2.297 0 3.76 1.613 3.76 4.17v2.228c0 2.557-1.463 4.184-3.76 4.184-2.283 0-3.733-1.613-3.733-4.184v-2.228c0-2.557 1.45-4.17 3.733-4.17zm17.062 12.988c4.02 0 6.576-2.57 6.576-6.603v-2.256c0-4.047-2.556-6.604-6.576-6.604-4.019 0-6.576 2.557-6.576 6.604v2.256c0 4.033 2.557 6.603 6.576 6.603zm0-13.139c2.379 0 3.869 1.709 3.869 4.471v1.873c0 2.762-1.49 4.471-3.869 4.471s-3.869-1.709-3.869-4.471v-1.873c0-2.762 1.49-4.471 3.869-4.471zm17.555-5.537c1.23 0 2.119-.847 2.119-2.023 0-1.19-.889-2.037-2.119-2.037-1.217 0-2.119.847-2.119 2.037 0 1.176.902 2.023 2.119 2.023zm6.289 18.389v-2.215h-4.812v-12.687h-7.588v2.214h4.908v10.473h-5.018v2.215zm4.512 0h2.734v-8.736c0-2.407 1.531-4.006 3.815-4.006 2.201 0 3.226 1.203 3.226 3.76v8.982h2.748v-9.666c0-3.582-1.75-5.523-4.99-5.523-2.229 0-3.91 1.039-4.689 2.884h-.192v-2.597h-2.652zm20.863-18.977v4.157h-3.937v2.256h3.937v8.052c0 3.2 1.668 4.567 5.482 4.567.575 0 2.735-.055 3.036-.11v-2.242c-.329.041-2.147.068-2.844.068-1.901 0-2.926-.806-2.926-2.283v-8.052h5.852v-2.256h-5.893v-4.157zm14.41 8.19c0 2.174 1.354 3.541 4.074 4.156l2.229.506c1.805.41 2.475.971 2.475 2.064 0 1.299-1.204 2.133-3.077 2.133-1.804 0-3.035-.724-3.336-1.996h-2.761c.246 2.625 2.515 4.197 6.029 4.197 3.637 0 5.975-1.804 5.975-4.634 0-2.188-1.327-3.446-4.266-4.102l-2.16-.478c-1.736-.383-2.461-.971-2.461-2.038 0-1.23 1.135-2.05 2.885-2.05 1.64 0 2.802.752 3.049 1.968h2.624c-.246-2.584-2.378-4.142-5.632-4.142-3.418 0-5.647 1.75-5.647 4.416zm36.969.916c0 4.758 1.449 8.9 4.211 12.017h2.775c-2.871-4.115-4.06-7.628-4.06-12.017 0-4.375 1.189-7.902 4.06-12.018h-2.775c-2.762 3.118-4.211 7.26-4.211 12.018zm18.266 9.871h2.734v-12.564h6.371v-2.256h-6.412v-1.491c0-1.38.984-2.105 2.857-2.105.684 0 3.008.055 3.555.109v-2.119c-.41-.068-2.898-.123-3.609-.123-3.774 0-5.496 1.326-5.496 4.334v1.395h-3.993v2.256h3.993zm19.605.287c4.02 0 6.576-2.57 6.576-6.603v-2.256c0-4.047-2.556-6.604-6.576-6.604-4.019 0-6.576 2.557-6.576 6.604v2.256c0 4.033 2.557 6.603 6.576 6.603zm0-13.139c2.379 0 3.869 1.709 3.869 4.471v1.873c0 2.762-1.49 4.471-3.869 4.471s-3.869-1.709-3.869-4.471v-1.873c0-2.762 1.49-4.471 3.869-4.471zm16.816 6.207c0-3.65 1.873-5.742 5.237-5.742.82 0 1.791.178 2.461.424v-3.008c-.492-.205-1.299-.314-2.147-.314-2.857 0-4.594 1.381-5.181 4.183h-.383v-3.8h-5.893v2.105h3.24v10.692h-2.953v2.105h10.145v-2.105h-4.526zm37.191 6.645h2.64v-4.047h2.89v-2.392h-2.91v-5.456h-2.55v5.456h-5.993v-.192l6.373-13.098h-2.887l-6.494 13.413v2.269h8.931zm15.08.396c4.13 0 6.9-2.734 6.9-6.794 0-3.87-2.54-6.563-6.19-6.563-1.77 0-3.2.629-4.13 1.818h-.23l.52-6.111h8.9v-2.475h-11.16l-.97 11.211h2.71c.75-1.339 2.1-2.078 3.77-2.078 2.41 0 4.03 1.723 4.03 4.266s-1.61 4.238-4.03 4.238c-2.17 0-3.81-1.326-4.05-3.254h-2.73c.16 3.418 2.86 5.742 6.66 5.742zm41.14-10.5c-.37-3.226-2.63-5.099-6.1-5.099-4.14 0-6.54 2.474-6.54 6.822v1.832c0 4.348 2.4 6.836 6.54 6.836 3.47 0 5.73-1.873 6.1-5.045h-2.71c-.27 1.682-1.59 2.68-3.42 2.68-2.42 0-3.76-1.695-3.76-4.758v-1.258c0-3.062 1.34-4.758 3.76-4.758 1.82 0 3.16 1.026 3.42 2.748zm10.93 10.391c4.02 0 6.58-2.57 6.58-6.603v-2.256c0-4.047-2.56-6.604-6.58-6.604s-6.57 2.557-6.57 6.604v2.256c0 4.033 2.55 6.603 6.57 6.603zm0-13.139c2.38 0 3.87 1.709 3.87 4.471v1.873c0 2.762-1.49 4.471-3.87 4.471s-3.87-1.709-3.87-4.471v-1.873c0-2.762 1.49-4.471 3.87-4.471zm11.05 12.852h2.73v-8.736c0-2.407 1.54-4.006 3.82-4.006 2.2 0 3.23 1.203 3.23 3.76v8.982h2.74v-9.666c0-3.582-1.75-5.523-4.99-5.523-2.23 0-3.91 1.039-4.69 2.884h-.19v-2.597h-2.65zm17.31 0h2.73v-8.736c0-2.407 1.53-4.006 3.82-4.006 2.2 0 3.22 1.203 3.22 3.76v8.982h2.75v-9.666c0-3.582-1.75-5.523-4.99-5.523-2.23 0-3.91 1.039-4.69 2.884h-.19v-2.597h-2.65zm27.36-3.938c-.37 1.217-1.7 1.969-3.46 1.969-2.35 0-3.87-1.613-3.87-4.129v-.67h9.99v-1.613c0-4.238-2.36-6.808-6.26-6.808-3.87 0-6.43 2.584-6.43 6.507v2.27c0 4.238 2.4 6.699 6.58 6.699 3.21 0 5.67-1.723 6.07-4.225zm-3.63-9.009c2.26 0 3.6 1.599 3.6 4.252h-7.3c0-2.666 1.39-4.252 3.7-4.252zm23.52 2.843c-.37-3.226-2.63-5.099-6.1-5.099-4.14 0-6.53 2.474-6.53 6.822v1.832c0 4.348 2.39 6.836 6.53 6.836 3.47 0 5.73-1.873 6.1-5.045h-2.71c-.27 1.682-1.58 2.68-3.42 2.68-2.42 0-3.76-1.695-3.76-4.758v-1.258c0-3.062 1.34-4.758 3.76-4.758 1.82 0 3.16 1.026 3.42 2.748zm8.23-8.873v4.157h-3.94v2.256h3.94v8.052c0 3.2 1.67 4.567 5.48 4.567.58 0 2.74-.055 3.04-.11v-2.242c-.33.041-2.15.068-2.85.068-1.9 0-2.92-.806-2.92-2.283v-8.052h5.85v-2.256h-5.89v-4.157zm20.26.588c1.23 0 2.12-.847 2.12-2.023 0-1.19-.89-2.037-2.12-2.037-1.22 0-2.12.847-2.12 2.037 0 1.176.9 2.023 2.12 2.023zm6.29 18.389v-2.215h-4.81v-12.687h-7.59v2.214h4.91v10.473h-5.02v2.215zm10.77.287c4.02 0 6.58-2.57 6.58-6.603v-2.256c0-4.047-2.56-6.604-6.58-6.604s-6.57 2.557-6.57 6.604v2.256c0 4.033 2.55 6.603 6.57 6.603zm0-13.139c2.38 0 3.87 1.709 3.87 4.471v1.873c0 2.762-1.49 4.471-3.87 4.471s-3.87-1.709-3.87-4.471v-1.873c0-2.762 1.49-4.471 3.87-4.471zm11.05 12.852h2.73v-8.736c0-2.407 1.54-4.006 3.82-4.006 2.2 0 3.23 1.203 3.23 3.76v8.982h2.74v-9.666c0-3.582-1.75-5.523-4.99-5.523-2.23 0-3.91 1.039-4.69 2.884h-.19v-2.597h-2.65zm17.97-10.787c0 2.174 1.35 3.541 4.07 4.156l2.23.506c1.8.41 2.47.971 2.47 2.064 0 1.299-1.2 2.133-3.07 2.133-1.81 0-3.04-.724-3.34-1.996h-2.76c.24 2.625 2.51 4.197 6.03 4.197 3.63 0 5.97-1.804 5.97-4.634 0-2.188-1.32-3.446-4.26-4.102l-2.16-.478c-1.74-.383-2.46-.971-2.46-2.038 0-1.23 1.13-2.05 2.88-2.05 1.64 0 2.8.752 3.05 1.968h2.62c-.24-2.584-2.37-4.142-5.63-4.142-3.42 0-5.64 1.75-5.64 4.416zm26.16.916c0-4.758-1.45-8.9-4.21-12.018h-2.77c2.87 4.116 4.06 7.643 4.06 12.018 0 4.389-1.19 7.902-4.06 12.017h2.77c2.76-3.117 4.21-7.259 4.21-12.017z" fill="#c65835"/></svg>