<svg width="1600" height="1080" viewBox="0 0 1600 1080" fill="none" xmlns="http://www.w3.org/2000/svg">
<rect width="1600" height="1080" fill="#FAF9F8"/>
<path d="M987 540L985.939 538.939L984.879 540L985.939 541.061L987 540ZM1096.5 538.5H987V541.5H1096.5V538.5ZM988.061 541.061L998.061 531.061L995.939 528.939L985.939 538.939L988.061 541.061ZM985.939 541.061L995.939 551.061L998.061 548.939L988.061 538.939L985.939 541.061Z" fill="#4D78C8"/>
<path d="M613.5 540L614.561 538.939L615.621 540L614.561 541.061L613.5 540ZM504 538.5H613.5V541.5H504V538.5ZM612.439 541.061L602.439 531.061L604.561 528.939L614.561 538.939L612.439 541.061ZM614.561 541.061L604.561 551.061L602.439 548.939L612.439 538.939L614.561 541.061Z" fill="#4D78C8"/>
<path d="M975 635L1075 721.409M975 635V651M975 635H991" stroke="#4D78C8" stroke-width="3"/>
<path d="M975 446.409L1075 360M975 446.409V430.409M975 446.409H991" stroke="#4D78C8" stroke-width="3"/>
<path d="M628 446.409L528 360M628 446.409V430.409M628 446.409H612" stroke="#4D78C8" stroke-width="3"/>
<path d="M628 635L528 721.409M628 635V651M628 635H612" stroke="#4D78C8" stroke-width="3"/>
<path d="M561 186.5C561 174.074 571.074 164 583.5 164H751.5C763.926 164 774 174.074 774 186.5V186.5C774 198.926 763.926 209 751.5 209H583.5C571.074 209 561 198.926 561 186.5V186.5Z" fill="#242424"/>
<path d="M593.304 181.909H590.62V178.773H588.071V181.909H586.154V183.955H588.071V191.685C588.063 194.062 589.878 195.213 591.89 195.17C592.699 195.162 593.245 195.009 593.543 194.898L593.083 192.793C592.912 192.827 592.597 192.903 592.188 192.903C591.361 192.903 590.62 192.631 590.62 191.156V183.955H593.304V181.909ZM599.933 195.29C602.098 195.29 603.316 194.19 603.802 193.21H603.904V195H606.393V186.307C606.393 182.497 603.393 181.739 601.314 181.739C598.944 181.739 596.762 182.693 595.91 185.08L598.305 185.625C598.68 184.696 599.635 183.801 601.348 183.801C602.993 183.801 603.836 184.662 603.836 186.145V186.205C603.836 187.134 602.882 187.116 600.529 187.389C598.049 187.679 595.51 188.327 595.51 191.301C595.51 193.875 597.444 195.29 599.933 195.29ZM600.487 193.244C599.047 193.244 598.007 192.597 598.007 191.335C598.007 189.972 599.217 189.486 600.691 189.29C601.518 189.179 603.478 188.957 603.845 188.591V190.278C603.845 191.83 602.609 193.244 600.487 193.244ZM609.787 195H612.336V181.909H609.787V195ZM611.074 179.889C611.952 179.889 612.685 179.207 612.685 178.372C612.685 177.537 611.952 176.847 611.074 176.847C610.188 176.847 609.463 177.537 609.463 178.372C609.463 179.207 610.188 179.889 611.074 179.889ZM618.312 177.545H615.764V195H618.312V177.545ZM631.55 185.105C631.022 183.068 629.428 181.739 626.598 181.739C623.641 181.739 621.544 183.298 621.544 185.616C621.544 187.474 622.669 188.71 625.124 189.256L627.34 189.741C628.601 190.023 629.189 190.585 629.189 191.403C629.189 192.418 628.107 193.21 626.436 193.21C624.911 193.21 623.931 192.554 623.624 191.267L621.161 191.642C621.587 193.96 623.513 195.264 626.453 195.264C629.615 195.264 631.806 193.585 631.806 191.216C631.806 189.366 630.63 188.224 628.226 187.67L626.147 187.193C624.706 186.852 624.084 186.366 624.093 185.48C624.084 184.474 625.175 183.759 626.624 183.759C628.209 183.759 628.942 184.636 629.24 185.514L631.55 185.105ZM640.122 195.264C643.216 195.264 645.218 193.406 645.5 190.858H643.02C642.696 192.273 641.596 193.108 640.139 193.108C637.983 193.108 636.593 191.31 636.593 188.455C636.593 185.651 638.008 183.886 640.139 183.886C641.758 183.886 642.747 184.909 643.02 186.136H645.5C645.227 183.494 643.071 181.739 640.096 181.739C636.406 181.739 634.02 184.517 634.02 188.514C634.02 192.46 636.321 195.264 640.122 195.264ZM652.034 195.29C654.199 195.29 655.418 194.19 655.904 193.21H656.006V195H658.495V186.307C658.495 182.497 655.495 181.739 653.415 181.739C651.046 181.739 648.864 182.693 648.012 185.08L650.407 185.625C650.782 184.696 651.736 183.801 653.449 183.801C655.094 183.801 655.938 184.662 655.938 186.145V186.205C655.938 187.134 654.983 187.116 652.631 187.389C650.151 187.679 647.611 188.327 647.611 191.301C647.611 193.875 649.546 195.29 652.034 195.29ZM652.588 193.244C651.148 193.244 650.108 192.597 650.108 191.335C650.108 189.972 651.319 189.486 652.793 189.29C653.62 189.179 655.58 188.957 655.946 188.591V190.278C655.946 191.83 654.711 193.244 652.588 193.244ZM664.437 177.545H661.889V195H664.437V177.545ZM673.507 195.264C676.363 195.264 678.382 193.858 678.962 191.727L676.55 191.293C676.09 192.528 674.982 193.159 673.533 193.159C671.351 193.159 669.885 191.744 669.817 189.222H679.124V188.318C679.124 183.588 676.294 181.739 673.328 181.739C669.681 181.739 667.277 184.517 667.277 188.54C667.277 192.605 669.647 195.264 673.507 195.264ZM669.826 187.312C669.928 185.455 671.275 183.844 673.346 183.844C675.323 183.844 676.618 185.31 676.627 187.312H669.826ZM693.817 195.264C696.911 195.264 698.914 193.406 699.195 190.858H696.715C696.391 192.273 695.292 193.108 693.834 193.108C691.678 193.108 690.289 191.31 690.289 188.455C690.289 185.651 691.703 183.886 693.834 183.886C695.453 183.886 696.442 184.909 696.715 186.136H699.195C698.922 183.494 696.766 181.739 693.792 181.739C690.101 181.739 687.715 184.517 687.715 188.514C687.715 192.46 690.016 195.264 693.817 195.264ZM704.468 177.545H701.92V195H704.468V177.545ZM707.897 195H710.445V181.909H707.897V195ZM709.184 179.889C710.061 179.889 710.794 179.207 710.794 178.372C710.794 177.537 710.061 176.847 709.184 176.847C708.297 176.847 707.573 177.537 707.573 178.372C707.573 179.207 708.297 179.889 709.184 179.889ZM719.515 195.264C722.37 195.264 724.39 193.858 724.97 191.727L722.558 191.293C722.098 192.528 720.99 193.159 719.541 193.159C717.359 193.159 715.893 191.744 715.825 189.222H725.132V188.318C725.132 183.588 722.302 181.739 719.336 181.739C715.689 181.739 713.285 184.517 713.285 188.54C713.285 192.605 715.654 195.264 719.515 195.264ZM715.833 187.312C715.936 185.455 717.282 183.844 719.353 183.844C721.331 183.844 722.626 185.31 722.635 187.312H715.833ZM730.507 187.227C730.507 185.139 731.786 183.946 733.559 183.946C735.289 183.946 736.337 185.08 736.337 186.98V195H738.885V186.673C738.885 183.435 737.104 181.739 734.428 181.739C732.459 181.739 731.172 182.651 730.567 184.04H730.405V181.909H727.959V195H730.507V187.227ZM748.414 181.909H745.729V178.773H743.181V181.909H741.263V183.955H743.181V191.685C743.172 194.062 744.988 195.213 746.999 195.17C747.809 195.162 748.354 195.009 748.652 194.898L748.192 192.793C748.022 192.827 747.706 192.903 747.297 192.903C746.471 192.903 745.729 192.631 745.729 191.156V183.955H748.414V181.909Z" fill="white"/>
<path d="M817 186.5C817 174.074 827.074 164 839.5 164H1007.5C1019.93 164 1030 174.074 1030 186.5V186.5C1030 198.926 1019.93 209 1007.5 209H839.5C827.074 209 817 198.926 817 186.5V186.5Z" fill="#242424"/>
<path d="M849.304 181.909H846.62V178.773H844.071V181.909H842.154V183.955H844.071V191.685C844.063 194.062 845.878 195.213 847.89 195.17C848.699 195.162 849.245 195.009 849.543 194.898L849.083 192.793C848.912 192.827 848.597 192.903 848.188 192.903C847.361 192.903 846.62 192.631 846.62 191.156V183.955H849.304V181.909ZM855.933 195.29C858.098 195.29 859.316 194.19 859.802 193.21H859.904V195H862.393V186.307C862.393 182.497 859.393 181.739 857.314 181.739C854.944 181.739 852.762 182.693 851.91 185.08L854.305 185.625C854.68 184.696 855.635 183.801 857.348 183.801C858.993 183.801 859.836 184.662 859.836 186.145V186.205C859.836 187.134 858.882 187.116 856.529 187.389C854.049 187.679 851.51 188.327 851.51 191.301C851.51 193.875 853.444 195.29 855.933 195.29ZM856.487 193.244C855.047 193.244 854.007 192.597 854.007 191.335C854.007 189.972 855.217 189.486 856.691 189.29C857.518 189.179 859.478 188.957 859.845 188.591V190.278C859.845 191.83 858.609 193.244 856.487 193.244ZM865.787 195H868.336V181.909H865.787V195ZM867.074 179.889C867.952 179.889 868.685 179.207 868.685 178.372C868.685 177.537 867.952 176.847 867.074 176.847C866.188 176.847 865.463 177.537 865.463 178.372C865.463 179.207 866.188 179.889 867.074 179.889ZM874.312 177.545H871.764V195H874.312V177.545ZM887.55 185.105C887.022 183.068 885.428 181.739 882.598 181.739C879.641 181.739 877.544 183.298 877.544 185.616C877.544 187.474 878.669 188.71 881.124 189.256L883.34 189.741C884.601 190.023 885.189 190.585 885.189 191.403C885.189 192.418 884.107 193.21 882.436 193.21C880.911 193.21 879.931 192.554 879.624 191.267L877.161 191.642C877.587 193.96 879.513 195.264 882.453 195.264C885.615 195.264 887.806 193.585 887.806 191.216C887.806 189.366 886.63 188.224 884.226 187.67L882.147 187.193C880.706 186.852 880.084 186.366 880.093 185.48C880.084 184.474 881.175 183.759 882.624 183.759C884.209 183.759 884.942 184.636 885.24 185.514L887.55 185.105ZM896.122 195.264C899.216 195.264 901.218 193.406 901.5 190.858H899.02C898.696 192.273 897.596 193.108 896.139 193.108C893.983 193.108 892.593 191.31 892.593 188.455C892.593 185.651 894.008 183.886 896.139 183.886C897.758 183.886 898.747 184.909 899.02 186.136H901.5C901.227 183.494 899.071 181.739 896.096 181.739C892.406 181.739 890.02 184.517 890.02 188.514C890.02 192.46 892.321 195.264 896.122 195.264ZM908.034 195.29C910.199 195.29 911.418 194.19 911.904 193.21H912.006V195H914.495V186.307C914.495 182.497 911.495 181.739 909.415 181.739C907.046 181.739 904.864 182.693 904.012 185.08L906.407 185.625C906.782 184.696 907.736 183.801 909.449 183.801C911.094 183.801 911.938 184.662 911.938 186.145V186.205C911.938 187.134 910.983 187.116 908.631 187.389C906.151 187.679 903.611 188.327 903.611 191.301C903.611 193.875 905.546 195.29 908.034 195.29ZM908.588 193.244C907.148 193.244 906.108 192.597 906.108 191.335C906.108 189.972 907.319 189.486 908.793 189.29C909.62 189.179 911.58 188.957 911.946 188.591V190.278C911.946 191.83 910.711 193.244 908.588 193.244ZM920.437 177.545H917.889V195H920.437V177.545ZM929.507 195.264C932.363 195.264 934.382 193.858 934.962 191.727L932.55 191.293C932.09 192.528 930.982 193.159 929.533 193.159C927.351 193.159 925.885 191.744 925.817 189.222H935.124V188.318C935.124 183.588 932.294 181.739 929.328 181.739C925.681 181.739 923.277 184.517 923.277 188.54C923.277 192.605 925.647 195.264 929.507 195.264ZM925.826 187.312C925.928 185.455 927.275 183.844 929.346 183.844C931.323 183.844 932.618 185.31 932.627 187.312H925.826ZM949.817 195.264C952.911 195.264 954.914 193.406 955.195 190.858H952.715C952.391 192.273 951.292 193.108 949.834 193.108C947.678 193.108 946.289 191.31 946.289 188.455C946.289 185.651 947.703 183.886 949.834 183.886C951.453 183.886 952.442 184.909 952.715 186.136H955.195C954.922 183.494 952.766 181.739 949.792 181.739C946.101 181.739 943.715 184.517 943.715 188.514C943.715 192.46 946.016 195.264 949.817 195.264ZM960.468 177.545H957.92V195H960.468V177.545ZM963.897 195H966.445V181.909H963.897V195ZM965.184 179.889C966.061 179.889 966.794 179.207 966.794 178.372C966.794 177.537 966.061 176.847 965.184 176.847C964.297 176.847 963.573 177.537 963.573 178.372C963.573 179.207 964.297 179.889 965.184 179.889ZM975.515 195.264C978.37 195.264 980.39 193.858 980.97 191.727L978.558 191.293C978.098 192.528 976.99 193.159 975.541 193.159C973.359 193.159 971.893 191.744 971.825 189.222H981.132V188.318C981.132 183.588 978.302 181.739 975.336 181.739C971.689 181.739 969.285 184.517 969.285 188.54C969.285 192.605 971.654 195.264 975.515 195.264ZM971.833 187.312C971.936 185.455 973.282 183.844 975.353 183.844C977.331 183.844 978.626 185.31 978.635 187.312H971.833ZM986.507 187.227C986.507 185.139 987.786 183.946 989.559 183.946C991.289 183.946 992.337 185.08 992.337 186.98V195H994.885V186.673C994.885 183.435 993.104 181.739 990.428 181.739C988.459 181.739 987.172 182.651 986.567 184.04H986.405V181.909H983.959V195H986.507V187.227ZM1004.41 181.909H1001.73V178.773H999.181V181.909H997.263V183.955H999.181V191.685C999.172 194.062 1000.99 195.213 1003 195.17C1003.81 195.162 1004.35 195.009 1004.65 194.898L1004.19 192.793C1004.02 192.827 1003.71 192.903 1003.3 192.903C1002.47 192.903 1001.73 192.631 1001.73 191.156V183.955H1004.41V181.909Z" fill="white"/>
<path d="M343 324.5C343 312.074 353.074 302 365.5 302H533.5C545.926 302 556 312.074 556 324.5V324.5C556 336.926 545.926 347 533.5 347H365.5C353.074 347 343 336.926 343 324.5V324.5Z" fill="#242424"/>
<path d="M375.304 319.909H372.62V316.773H370.071V319.909H368.154V321.955H370.071V329.685C370.063 332.062 371.878 333.213 373.89 333.17C374.699 333.162 375.245 333.009 375.543 332.898L375.083 330.793C374.912 330.827 374.597 330.903 374.188 330.903C373.361 330.903 372.62 330.631 372.62 329.156V321.955H375.304V319.909ZM381.933 333.29C384.098 333.29 385.316 332.19 385.802 331.21H385.904V333H388.393V324.307C388.393 320.497 385.393 319.739 383.314 319.739C380.944 319.739 378.762 320.693 377.91 323.08L380.305 323.625C380.68 322.696 381.635 321.801 383.348 321.801C384.993 321.801 385.836 322.662 385.836 324.145V324.205C385.836 325.134 384.882 325.116 382.529 325.389C380.049 325.679 377.51 326.327 377.51 329.301C377.51 331.875 379.444 333.29 381.933 333.29ZM382.487 331.244C381.047 331.244 380.007 330.597 380.007 329.335C380.007 327.972 381.217 327.486 382.691 327.29C383.518 327.179 385.478 326.957 385.845 326.591V328.278C385.845 329.83 384.609 331.244 382.487 331.244ZM391.787 333H394.336V319.909H391.787V333ZM393.074 317.889C393.952 317.889 394.685 317.207 394.685 316.372C394.685 315.537 393.952 314.847 393.074 314.847C392.188 314.847 391.463 315.537 391.463 316.372C391.463 317.207 392.188 317.889 393.074 317.889ZM400.312 315.545H397.764V333H400.312V315.545ZM413.55 323.105C413.022 321.068 411.428 319.739 408.598 319.739C405.641 319.739 403.544 321.298 403.544 323.616C403.544 325.474 404.669 326.71 407.124 327.256L409.34 327.741C410.601 328.023 411.189 328.585 411.189 329.403C411.189 330.418 410.107 331.21 408.436 331.21C406.911 331.21 405.931 330.554 405.624 329.267L403.161 329.642C403.587 331.96 405.513 333.264 408.453 333.264C411.615 333.264 413.806 331.585 413.806 329.216C413.806 327.366 412.63 326.224 410.226 325.67L408.147 325.193C406.706 324.852 406.084 324.366 406.093 323.48C406.084 322.474 407.175 321.759 408.624 321.759C410.209 321.759 410.942 322.636 411.24 323.514L413.55 323.105ZM422.122 333.264C425.216 333.264 427.218 331.406 427.5 328.858H425.02C424.696 330.273 423.596 331.108 422.139 331.108C419.983 331.108 418.593 329.31 418.593 326.455C418.593 323.651 420.008 321.886 422.139 321.886C423.758 321.886 424.747 322.909 425.02 324.136H427.5C427.227 321.494 425.071 319.739 422.096 319.739C418.406 319.739 416.02 322.517 416.02 326.514C416.02 330.46 418.321 333.264 422.122 333.264ZM434.034 333.29C436.199 333.29 437.418 332.19 437.904 331.21H438.006V333H440.495V324.307C440.495 320.497 437.495 319.739 435.415 319.739C433.046 319.739 430.864 320.693 430.012 323.08L432.407 323.625C432.782 322.696 433.736 321.801 435.449 321.801C437.094 321.801 437.938 322.662 437.938 324.145V324.205C437.938 325.134 436.983 325.116 434.631 325.389C432.151 325.679 429.611 326.327 429.611 329.301C429.611 331.875 431.546 333.29 434.034 333.29ZM434.588 331.244C433.148 331.244 432.108 330.597 432.108 329.335C432.108 327.972 433.319 327.486 434.793 327.29C435.62 327.179 437.58 326.957 437.946 326.591V328.278C437.946 329.83 436.711 331.244 434.588 331.244ZM446.437 315.545H443.889V333H446.437V315.545ZM455.507 333.264C458.363 333.264 460.382 331.858 460.962 329.727L458.55 329.293C458.09 330.528 456.982 331.159 455.533 331.159C453.351 331.159 451.885 329.744 451.817 327.222H461.124V326.318C461.124 321.588 458.294 319.739 455.328 319.739C451.681 319.739 449.277 322.517 449.277 326.54C449.277 330.605 451.647 333.264 455.507 333.264ZM451.826 325.312C451.928 323.455 453.275 321.844 455.346 321.844C457.323 321.844 458.618 323.31 458.627 325.312H451.826ZM475.817 333.264C478.911 333.264 480.914 331.406 481.195 328.858H478.715C478.391 330.273 477.292 331.108 475.834 331.108C473.678 331.108 472.289 329.31 472.289 326.455C472.289 323.651 473.703 321.886 475.834 321.886C477.453 321.886 478.442 322.909 478.715 324.136H481.195C480.922 321.494 478.766 319.739 475.792 319.739C472.101 319.739 469.715 322.517 469.715 326.514C469.715 330.46 472.016 333.264 475.817 333.264ZM486.468 315.545H483.92V333H486.468V315.545ZM489.897 333H492.445V319.909H489.897V333ZM491.184 317.889C492.061 317.889 492.794 317.207 492.794 316.372C492.794 315.537 492.061 314.847 491.184 314.847C490.297 314.847 489.573 315.537 489.573 316.372C489.573 317.207 490.297 317.889 491.184 317.889ZM501.515 333.264C504.37 333.264 506.39 331.858 506.97 329.727L504.558 329.293C504.098 330.528 502.99 331.159 501.541 331.159C499.359 331.159 497.893 329.744 497.825 327.222H507.132V326.318C507.132 321.588 504.302 319.739 501.336 319.739C497.689 319.739 495.285 322.517 495.285 326.54C495.285 330.605 497.654 333.264 501.515 333.264ZM497.833 325.312C497.936 323.455 499.282 321.844 501.353 321.844C503.331 321.844 504.626 323.31 504.635 325.312H497.833ZM512.507 325.227C512.507 323.139 513.786 321.946 515.559 321.946C517.289 321.946 518.337 323.08 518.337 324.98V333H520.885V324.673C520.885 321.435 519.104 319.739 516.428 319.739C514.459 319.739 513.172 320.651 512.567 322.04H512.405V319.909H509.959V333H512.507V325.227ZM530.414 319.909H527.729V316.773H525.181V319.909H523.263V321.955H525.181V329.685C525.172 332.062 526.988 333.213 528.999 333.17C529.809 333.162 530.354 333.009 530.652 332.898L530.192 330.793C530.022 330.827 529.706 330.903 529.297 330.903C528.471 330.903 527.729 330.631 527.729 329.156V321.955H530.414V319.909Z" fill="white"/>
<path d="M1044 324.5C1044 312.074 1054.07 302 1066.5 302H1234.5C1246.93 302 1257 312.074 1257 324.5V324.5C1257 336.926 1246.93 347 1234.5 347H1066.5C1054.07 347 1044 336.926 1044 324.5V324.5Z" fill="#242424"/>
<path d="M1076.3 319.909H1073.62V316.773H1071.07V319.909H1069.15V321.955H1071.07V329.685C1071.06 332.062 1072.88 333.213 1074.89 333.17C1075.7 333.162 1076.24 333.009 1076.54 332.898L1076.08 330.793C1075.91 330.827 1075.6 330.903 1075.19 330.903C1074.36 330.903 1073.62 330.631 1073.62 329.156V321.955H1076.3V319.909ZM1082.93 333.29C1085.1 333.29 1086.32 332.19 1086.8 331.21H1086.9V333H1089.39V324.307C1089.39 320.497 1086.39 319.739 1084.31 319.739C1081.94 319.739 1079.76 320.693 1078.91 323.08L1081.31 323.625C1081.68 322.696 1082.63 321.801 1084.35 321.801C1085.99 321.801 1086.84 322.662 1086.84 324.145V324.205C1086.84 325.134 1085.88 325.116 1083.53 325.389C1081.05 325.679 1078.51 326.327 1078.51 329.301C1078.51 331.875 1080.44 333.29 1082.93 333.29ZM1083.49 331.244C1082.05 331.244 1081.01 330.597 1081.01 329.335C1081.01 327.972 1082.22 327.486 1083.69 327.29C1084.52 327.179 1086.48 326.957 1086.84 326.591V328.278C1086.84 329.83 1085.61 331.244 1083.49 331.244ZM1092.79 333H1095.34V319.909H1092.79V333ZM1094.07 317.889C1094.95 317.889 1095.69 317.207 1095.69 316.372C1095.69 315.537 1094.95 314.847 1094.07 314.847C1093.19 314.847 1092.46 315.537 1092.46 316.372C1092.46 317.207 1093.19 317.889 1094.07 317.889ZM1101.31 315.545H1098.76V333H1101.31V315.545ZM1114.55 323.105C1114.02 321.068 1112.43 319.739 1109.6 319.739C1106.64 319.739 1104.54 321.298 1104.54 323.616C1104.54 325.474 1105.67 326.71 1108.12 327.256L1110.34 327.741C1111.6 328.023 1112.19 328.585 1112.19 329.403C1112.19 330.418 1111.11 331.21 1109.44 331.21C1107.91 331.21 1106.93 330.554 1106.62 329.267L1104.16 329.642C1104.59 331.96 1106.51 333.264 1109.45 333.264C1112.62 333.264 1114.81 331.585 1114.81 329.216C1114.81 327.366 1113.63 326.224 1111.23 325.67L1109.15 325.193C1107.71 324.852 1107.08 324.366 1107.09 323.48C1107.08 322.474 1108.18 321.759 1109.62 321.759C1111.21 321.759 1111.94 322.636 1112.24 323.514L1114.55 323.105ZM1123.12 333.264C1126.22 333.264 1128.22 331.406 1128.5 328.858H1126.02C1125.7 330.273 1124.6 331.108 1123.14 331.108C1120.98 331.108 1119.59 329.31 1119.59 326.455C1119.59 323.651 1121.01 321.886 1123.14 321.886C1124.76 321.886 1125.75 322.909 1126.02 324.136H1128.5C1128.23 321.494 1126.07 319.739 1123.1 319.739C1119.41 319.739 1117.02 322.517 1117.02 326.514C1117.02 330.46 1119.32 333.264 1123.12 333.264ZM1135.03 333.29C1137.2 333.29 1138.42 332.19 1138.9 331.21H1139.01V333H1141.49V324.307C1141.49 320.497 1138.49 319.739 1136.42 319.739C1134.05 319.739 1131.86 320.693 1131.01 323.08L1133.41 323.625C1133.78 322.696 1134.74 321.801 1136.45 321.801C1138.09 321.801 1138.94 322.662 1138.94 324.145V324.205C1138.94 325.134 1137.98 325.116 1135.63 325.389C1133.15 325.679 1130.61 326.327 1130.61 329.301C1130.61 331.875 1132.55 333.29 1135.03 333.29ZM1135.59 331.244C1134.15 331.244 1133.11 330.597 1133.11 329.335C1133.11 327.972 1134.32 327.486 1135.79 327.29C1136.62 327.179 1138.58 326.957 1138.95 326.591V328.278C1138.95 329.83 1137.71 331.244 1135.59 331.244ZM1147.44 315.545H1144.89V333H1147.44V315.545ZM1156.51 333.264C1159.36 333.264 1161.38 331.858 1161.96 329.727L1159.55 329.293C1159.09 330.528 1157.98 331.159 1156.53 331.159C1154.35 331.159 1152.89 329.744 1152.82 327.222H1162.12V326.318C1162.12 321.588 1159.29 319.739 1156.33 319.739C1152.68 319.739 1150.28 322.517 1150.28 326.54C1150.28 330.605 1152.65 333.264 1156.51 333.264ZM1152.83 325.312C1152.93 323.455 1154.27 321.844 1156.35 321.844C1158.32 321.844 1159.62 323.31 1159.63 325.312H1152.83ZM1176.82 333.264C1179.91 333.264 1181.91 331.406 1182.19 328.858H1179.71C1179.39 330.273 1178.29 331.108 1176.83 331.108C1174.68 331.108 1173.29 329.31 1173.29 326.455C1173.29 323.651 1174.7 321.886 1176.83 321.886C1178.45 321.886 1179.44 322.909 1179.71 324.136H1182.19C1181.92 321.494 1179.77 319.739 1176.79 319.739C1173.1 319.739 1170.71 322.517 1170.71 326.514C1170.71 330.46 1173.02 333.264 1176.82 333.264ZM1187.47 315.545H1184.92V333H1187.47V315.545ZM1190.9 333H1193.44V319.909H1190.9V333ZM1192.18 317.889C1193.06 317.889 1193.79 317.207 1193.79 316.372C1193.79 315.537 1193.06 314.847 1192.18 314.847C1191.3 314.847 1190.57 315.537 1190.57 316.372C1190.57 317.207 1191.3 317.889 1192.18 317.889ZM1202.52 333.264C1205.37 333.264 1207.39 331.858 1207.97 329.727L1205.56 329.293C1205.1 330.528 1203.99 331.159 1202.54 331.159C1200.36 331.159 1198.89 329.744 1198.82 327.222H1208.13V326.318C1208.13 321.588 1205.3 319.739 1202.34 319.739C1198.69 319.739 1196.29 322.517 1196.29 326.54C1196.29 330.605 1198.65 333.264 1202.52 333.264ZM1198.83 325.312C1198.94 323.455 1200.28 321.844 1202.35 321.844C1204.33 321.844 1205.63 323.31 1205.63 325.312H1198.83ZM1213.51 325.227C1213.51 323.139 1214.79 321.946 1216.56 321.946C1218.29 321.946 1219.34 323.08 1219.34 324.98V333H1221.89V324.673C1221.89 321.435 1220.1 319.739 1217.43 319.739C1215.46 319.739 1214.17 320.651 1213.57 322.04H1213.41V319.909H1210.96V333H1213.51V325.227ZM1231.41 319.909H1228.73V316.773H1226.18V319.909H1224.26V321.955H1226.18V329.685C1226.17 332.062 1227.99 333.213 1230 333.17C1230.81 333.162 1231.35 333.009 1231.65 332.898L1231.19 330.793C1231.02 330.827 1230.71 330.903 1230.3 330.903C1229.47 330.903 1228.73 330.631 1228.73 329.156V321.955H1231.41V319.909Z" fill="white"/>
<path d="M1119.5 539.5C1119.5 527.074 1129.57 517 1142 517H1310C1322.43 517 1332.5 527.074 1332.5 539.5V539.5C1332.5 551.926 1322.43 562 1310 562H1142C1129.57 562 1119.5 551.926 1119.5 539.5V539.5Z" fill="#242424"/>
<path d="M1151.8 534.909H1149.12V531.773H1146.57V534.909H1144.65V536.955H1146.57V544.685C1146.56 547.062 1148.38 548.213 1150.39 548.17C1151.2 548.162 1151.74 548.009 1152.04 547.898L1151.58 545.793C1151.41 545.827 1151.1 545.903 1150.69 545.903C1149.86 545.903 1149.12 545.631 1149.12 544.156V536.955H1151.8V534.909ZM1158.43 548.29C1160.6 548.29 1161.82 547.19 1162.3 546.21H1162.4V548H1164.89V539.307C1164.89 535.497 1161.89 534.739 1159.81 534.739C1157.44 534.739 1155.26 535.693 1154.41 538.08L1156.81 538.625C1157.18 537.696 1158.13 536.801 1159.85 536.801C1161.49 536.801 1162.34 537.662 1162.34 539.145V539.205C1162.34 540.134 1161.38 540.116 1159.03 540.389C1156.55 540.679 1154.01 541.327 1154.01 544.301C1154.01 546.875 1155.94 548.29 1158.43 548.29ZM1158.99 546.244C1157.55 546.244 1156.51 545.597 1156.51 544.335C1156.51 542.972 1157.72 542.486 1159.19 542.29C1160.02 542.179 1161.98 541.957 1162.34 541.591V543.278C1162.34 544.83 1161.11 546.244 1158.99 546.244ZM1168.29 548H1170.84V534.909H1168.29V548ZM1169.57 532.889C1170.45 532.889 1171.19 532.207 1171.19 531.372C1171.19 530.537 1170.45 529.847 1169.57 529.847C1168.69 529.847 1167.96 530.537 1167.96 531.372C1167.96 532.207 1168.69 532.889 1169.57 532.889ZM1176.81 530.545H1174.26V548H1176.81V530.545ZM1190.05 538.105C1189.52 536.068 1187.93 534.739 1185.1 534.739C1182.14 534.739 1180.04 536.298 1180.04 538.616C1180.04 540.474 1181.17 541.71 1183.62 542.256L1185.84 542.741C1187.1 543.023 1187.69 543.585 1187.69 544.403C1187.69 545.418 1186.61 546.21 1184.94 546.21C1183.41 546.21 1182.43 545.554 1182.12 544.267L1179.66 544.642C1180.09 546.96 1182.01 548.264 1184.95 548.264C1188.12 548.264 1190.31 546.585 1190.31 544.216C1190.31 542.366 1189.13 541.224 1186.73 540.67L1184.65 540.193C1183.21 539.852 1182.58 539.366 1182.59 538.48C1182.58 537.474 1183.68 536.759 1185.12 536.759C1186.71 536.759 1187.44 537.636 1187.74 538.514L1190.05 538.105ZM1198.62 548.264C1201.72 548.264 1203.72 546.406 1204 543.858H1201.52C1201.2 545.273 1200.1 546.108 1198.64 546.108C1196.48 546.108 1195.09 544.31 1195.09 541.455C1195.09 538.651 1196.51 536.886 1198.64 536.886C1200.26 536.886 1201.25 537.909 1201.52 539.136H1204C1203.73 536.494 1201.57 534.739 1198.6 534.739C1194.91 534.739 1192.52 537.517 1192.52 541.514C1192.52 545.46 1194.82 548.264 1198.62 548.264ZM1210.53 548.29C1212.7 548.29 1213.92 547.19 1214.4 546.21H1214.51V548H1216.99V539.307C1216.99 535.497 1213.99 534.739 1211.92 534.739C1209.55 534.739 1207.36 535.693 1206.51 538.08L1208.91 538.625C1209.28 537.696 1210.24 536.801 1211.95 536.801C1213.59 536.801 1214.44 537.662 1214.44 539.145V539.205C1214.44 540.134 1213.48 540.116 1211.13 540.389C1208.65 540.679 1206.11 541.327 1206.11 544.301C1206.11 546.875 1208.05 548.29 1210.53 548.29ZM1211.09 546.244C1209.65 546.244 1208.61 545.597 1208.61 544.335C1208.61 542.972 1209.82 542.486 1211.29 542.29C1212.12 542.179 1214.08 541.957 1214.45 541.591V543.278C1214.45 544.83 1213.21 546.244 1211.09 546.244ZM1222.94 530.545H1220.39V548H1222.94V530.545ZM1232.01 548.264C1234.86 548.264 1236.88 546.858 1237.46 544.727L1235.05 544.293C1234.59 545.528 1233.48 546.159 1232.03 546.159C1229.85 546.159 1228.39 544.744 1228.32 542.222H1237.62V541.318C1237.62 536.588 1234.79 534.739 1231.83 534.739C1228.18 534.739 1225.78 537.517 1225.78 541.54C1225.78 545.605 1228.15 548.264 1232.01 548.264ZM1228.33 540.312C1228.43 538.455 1229.77 536.844 1231.85 536.844C1233.82 536.844 1235.12 538.31 1235.13 540.312H1228.33ZM1252.32 548.264C1255.41 548.264 1257.41 546.406 1257.69 543.858H1255.21C1254.89 545.273 1253.79 546.108 1252.33 546.108C1250.18 546.108 1248.79 544.31 1248.79 541.455C1248.79 538.651 1250.2 536.886 1252.33 536.886C1253.95 536.886 1254.94 537.909 1255.21 539.136H1257.69C1257.42 536.494 1255.27 534.739 1252.29 534.739C1248.6 534.739 1246.21 537.517 1246.21 541.514C1246.21 545.46 1248.52 548.264 1252.32 548.264ZM1262.97 530.545H1260.42V548H1262.97V530.545ZM1266.4 548H1268.94V534.909H1266.4V548ZM1267.68 532.889C1268.56 532.889 1269.29 532.207 1269.29 531.372C1269.29 530.537 1268.56 529.847 1267.68 529.847C1266.8 529.847 1266.07 530.537 1266.07 531.372C1266.07 532.207 1266.8 532.889 1267.68 532.889ZM1278.02 548.264C1280.87 548.264 1282.89 546.858 1283.47 544.727L1281.06 544.293C1280.6 545.528 1279.49 546.159 1278.04 546.159C1275.86 546.159 1274.39 544.744 1274.32 542.222H1283.63V541.318C1283.63 536.588 1280.8 534.739 1277.84 534.739C1274.19 534.739 1271.79 537.517 1271.79 541.54C1271.79 545.605 1274.15 548.264 1278.02 548.264ZM1274.33 540.312C1274.44 538.455 1275.78 536.844 1277.85 536.844C1279.83 536.844 1281.13 538.31 1281.13 540.312H1274.33ZM1289.01 540.227C1289.01 538.139 1290.29 536.946 1292.06 536.946C1293.79 536.946 1294.84 538.08 1294.84 539.98V548H1297.39V539.673C1297.39 536.435 1295.6 534.739 1292.93 534.739C1290.96 534.739 1289.67 535.651 1289.07 537.04H1288.91V534.909H1286.46V548H1289.01V540.227ZM1306.91 534.909H1304.23V531.773H1301.68V534.909H1299.76V536.955H1301.68V544.685C1301.67 547.062 1303.49 548.213 1305.5 548.17C1306.31 548.162 1306.85 548.009 1307.15 547.898L1306.69 545.793C1306.52 545.827 1306.21 545.903 1305.8 545.903C1304.97 545.903 1304.23 545.631 1304.23 544.156V536.955H1306.91V534.909Z" fill="white"/>
<path d="M1044 755.5C1044 743.074 1054.07 733 1066.5 733H1234.5C1246.93 733 1257 743.074 1257 755.5V755.5C1257 767.926 1246.93 778 1234.5 778H1066.5C1054.07 778 1044 767.926 1044 755.5V755.5Z" fill="#242424"/>
<path d="M1076.3 750.909H1073.62V747.773H1071.07V750.909H1069.15V752.955H1071.07V760.685C1071.06 763.062 1072.88 764.213 1074.89 764.17C1075.7 764.162 1076.24 764.009 1076.54 763.898L1076.08 761.793C1075.91 761.827 1075.6 761.903 1075.19 761.903C1074.36 761.903 1073.62 761.631 1073.62 760.156V752.955H1076.3V750.909ZM1082.93 764.29C1085.1 764.29 1086.32 763.19 1086.8 762.21H1086.9V764H1089.39V755.307C1089.39 751.497 1086.39 750.739 1084.31 750.739C1081.94 750.739 1079.76 751.693 1078.91 754.08L1081.31 754.625C1081.68 753.696 1082.63 752.801 1084.35 752.801C1085.99 752.801 1086.84 753.662 1086.84 755.145V755.205C1086.84 756.134 1085.88 756.116 1083.53 756.389C1081.05 756.679 1078.51 757.327 1078.51 760.301C1078.51 762.875 1080.44 764.29 1082.93 764.29ZM1083.49 762.244C1082.05 762.244 1081.01 761.597 1081.01 760.335C1081.01 758.972 1082.22 758.486 1083.69 758.29C1084.52 758.179 1086.48 757.957 1086.84 757.591V759.278C1086.84 760.83 1085.61 762.244 1083.49 762.244ZM1092.79 764H1095.34V750.909H1092.79V764ZM1094.07 748.889C1094.95 748.889 1095.69 748.207 1095.69 747.372C1095.69 746.537 1094.95 745.847 1094.07 745.847C1093.19 745.847 1092.46 746.537 1092.46 747.372C1092.46 748.207 1093.19 748.889 1094.07 748.889ZM1101.31 746.545H1098.76V764H1101.31V746.545ZM1114.55 754.105C1114.02 752.068 1112.43 750.739 1109.6 750.739C1106.64 750.739 1104.54 752.298 1104.54 754.616C1104.54 756.474 1105.67 757.71 1108.12 758.256L1110.34 758.741C1111.6 759.023 1112.19 759.585 1112.19 760.403C1112.19 761.418 1111.11 762.21 1109.44 762.21C1107.91 762.21 1106.93 761.554 1106.62 760.267L1104.16 760.642C1104.59 762.96 1106.51 764.264 1109.45 764.264C1112.62 764.264 1114.81 762.585 1114.81 760.216C1114.81 758.366 1113.63 757.224 1111.23 756.67L1109.15 756.193C1107.71 755.852 1107.08 755.366 1107.09 754.48C1107.08 753.474 1108.18 752.759 1109.62 752.759C1111.21 752.759 1111.94 753.636 1112.24 754.514L1114.55 754.105ZM1123.12 764.264C1126.22 764.264 1128.22 762.406 1128.5 759.858H1126.02C1125.7 761.273 1124.6 762.108 1123.14 762.108C1120.98 762.108 1119.59 760.31 1119.59 757.455C1119.59 754.651 1121.01 752.886 1123.14 752.886C1124.76 752.886 1125.75 753.909 1126.02 755.136H1128.5C1128.23 752.494 1126.07 750.739 1123.1 750.739C1119.41 750.739 1117.02 753.517 1117.02 757.514C1117.02 761.46 1119.32 764.264 1123.12 764.264ZM1135.03 764.29C1137.2 764.29 1138.42 763.19 1138.9 762.21H1139.01V764H1141.49V755.307C1141.49 751.497 1138.49 750.739 1136.42 750.739C1134.05 750.739 1131.86 751.693 1131.01 754.08L1133.41 754.625C1133.78 753.696 1134.74 752.801 1136.45 752.801C1138.09 752.801 1138.94 753.662 1138.94 755.145V755.205C1138.94 756.134 1137.98 756.116 1135.63 756.389C1133.15 756.679 1130.61 757.327 1130.61 760.301C1130.61 762.875 1132.55 764.29 1135.03 764.29ZM1135.59 762.244C1134.15 762.244 1133.11 761.597 1133.11 760.335C1133.11 758.972 1134.32 758.486 1135.79 758.29C1136.62 758.179 1138.58 757.957 1138.95 757.591V759.278C1138.95 760.83 1137.71 762.244 1135.59 762.244ZM1147.44 746.545H1144.89V764H1147.44V746.545ZM1156.51 764.264C1159.36 764.264 1161.38 762.858 1161.96 760.727L1159.55 760.293C1159.09 761.528 1157.98 762.159 1156.53 762.159C1154.35 762.159 1152.89 760.744 1152.82 758.222H1162.12V757.318C1162.12 752.588 1159.29 750.739 1156.33 750.739C1152.68 750.739 1150.28 753.517 1150.28 757.54C1150.28 761.605 1152.65 764.264 1156.51 764.264ZM1152.83 756.312C1152.93 754.455 1154.27 752.844 1156.35 752.844C1158.32 752.844 1159.62 754.31 1159.63 756.312H1152.83ZM1176.82 764.264C1179.91 764.264 1181.91 762.406 1182.19 759.858H1179.71C1179.39 761.273 1178.29 762.108 1176.83 762.108C1174.68 762.108 1173.29 760.31 1173.29 757.455C1173.29 754.651 1174.7 752.886 1176.83 752.886C1178.45 752.886 1179.44 753.909 1179.71 755.136H1182.19C1181.92 752.494 1179.77 750.739 1176.79 750.739C1173.1 750.739 1170.71 753.517 1170.71 757.514C1170.71 761.46 1173.02 764.264 1176.82 764.264ZM1187.47 746.545H1184.92V764H1187.47V746.545ZM1190.9 764H1193.44V750.909H1190.9V764ZM1192.18 748.889C1193.06 748.889 1193.79 748.207 1193.79 747.372C1193.79 746.537 1193.06 745.847 1192.18 745.847C1191.3 745.847 1190.57 746.537 1190.57 747.372C1190.57 748.207 1191.3 748.889 1192.18 748.889ZM1202.52 764.264C1205.37 764.264 1207.39 762.858 1207.97 760.727L1205.56 760.293C1205.1 761.528 1203.99 762.159 1202.54 762.159C1200.36 762.159 1198.89 760.744 1198.82 758.222H1208.13V757.318C1208.13 752.588 1205.3 750.739 1202.34 750.739C1198.69 750.739 1196.29 753.517 1196.29 757.54C1196.29 761.605 1198.65 764.264 1202.52 764.264ZM1198.83 756.312C1198.94 754.455 1200.28 752.844 1202.35 752.844C1204.33 752.844 1205.63 754.31 1205.63 756.312H1198.83ZM1213.51 756.227C1213.51 754.139 1214.79 752.946 1216.56 752.946C1218.29 752.946 1219.34 754.08 1219.34 755.98V764H1221.89V755.673C1221.89 752.435 1220.1 750.739 1217.43 750.739C1215.46 750.739 1214.17 751.651 1213.57 753.04H1213.41V750.909H1210.96V764H1213.51V756.227ZM1231.41 750.909H1228.73V747.773H1226.18V750.909H1224.26V752.955H1226.18V760.685C1226.17 763.062 1227.99 764.213 1230 764.17C1230.81 764.162 1231.35 764.009 1231.65 763.898L1231.19 761.793C1231.02 761.827 1230.71 761.903 1230.3 761.903C1229.47 761.903 1228.73 761.631 1228.73 760.156V752.955H1231.41V750.909Z" fill="white"/>
<path d="M343 755.5C343 743.074 353.074 733 365.5 733H533.5C545.926 733 556 743.074 556 755.5V755.5C556 767.926 545.926 778 533.5 778H365.5C353.074 778 343 767.926 343 755.5V755.5Z" fill="#242424"/>
<path d="M375.304 750.909H372.62V747.773H370.071V750.909H368.154V752.955H370.071V760.685C370.063 763.062 371.878 764.213 373.89 764.17C374.699 764.162 375.245 764.009 375.543 763.898L375.083 761.793C374.912 761.827 374.597 761.903 374.188 761.903C373.361 761.903 372.62 761.631 372.62 760.156V752.955H375.304V750.909ZM381.933 764.29C384.098 764.29 385.316 763.19 385.802 762.21H385.904V764H388.393V755.307C388.393 751.497 385.393 750.739 383.314 750.739C380.944 750.739 378.762 751.693 377.91 754.08L380.305 754.625C380.68 753.696 381.635 752.801 383.348 752.801C384.993 752.801 385.836 753.662 385.836 755.145V755.205C385.836 756.134 384.882 756.116 382.529 756.389C380.049 756.679 377.51 757.327 377.51 760.301C377.51 762.875 379.444 764.29 381.933 764.29ZM382.487 762.244C381.047 762.244 380.007 761.597 380.007 760.335C380.007 758.972 381.217 758.486 382.691 758.29C383.518 758.179 385.478 757.957 385.845 757.591V759.278C385.845 760.83 384.609 762.244 382.487 762.244ZM391.787 764H394.336V750.909H391.787V764ZM393.074 748.889C393.952 748.889 394.685 748.207 394.685 747.372C394.685 746.537 393.952 745.847 393.074 745.847C392.188 745.847 391.463 746.537 391.463 747.372C391.463 748.207 392.188 748.889 393.074 748.889ZM400.312 746.545H397.764V764H400.312V746.545ZM413.55 754.105C413.022 752.068 411.428 750.739 408.598 750.739C405.641 750.739 403.544 752.298 403.544 754.616C403.544 756.474 404.669 757.71 407.124 758.256L409.34 758.741C410.601 759.023 411.189 759.585 411.189 760.403C411.189 761.418 410.107 762.21 408.436 762.21C406.911 762.21 405.931 761.554 405.624 760.267L403.161 760.642C403.587 762.96 405.513 764.264 408.453 764.264C411.615 764.264 413.806 762.585 413.806 760.216C413.806 758.366 412.63 757.224 410.226 756.67L408.147 756.193C406.706 755.852 406.084 755.366 406.093 754.48C406.084 753.474 407.175 752.759 408.624 752.759C410.209 752.759 410.942 753.636 411.24 754.514L413.55 754.105ZM422.122 764.264C425.216 764.264 427.218 762.406 427.5 759.858H425.02C424.696 761.273 423.596 762.108 422.139 762.108C419.983 762.108 418.593 760.31 418.593 757.455C418.593 754.651 420.008 752.886 422.139 752.886C423.758 752.886 424.747 753.909 425.02 755.136H427.5C427.227 752.494 425.071 750.739 422.096 750.739C418.406 750.739 416.02 753.517 416.02 757.514C416.02 761.46 418.321 764.264 422.122 764.264ZM434.034 764.29C436.199 764.29 437.418 763.19 437.904 762.21H438.006V764H440.495V755.307C440.495 751.497 437.495 750.739 435.415 750.739C433.046 750.739 430.864 751.693 430.012 754.08L432.407 754.625C432.782 753.696 433.736 752.801 435.449 752.801C437.094 752.801 437.938 753.662 437.938 755.145V755.205C437.938 756.134 436.983 756.116 434.631 756.389C432.151 756.679 429.611 757.327 429.611 760.301C429.611 762.875 431.546 764.29 434.034 764.29ZM434.588 762.244C433.148 762.244 432.108 761.597 432.108 760.335C432.108 758.972 433.319 758.486 434.793 758.29C435.62 758.179 437.58 757.957 437.946 757.591V759.278C437.946 760.83 436.711 762.244 434.588 762.244ZM446.437 746.545H443.889V764H446.437V746.545ZM455.507 764.264C458.363 764.264 460.382 762.858 460.962 760.727L458.55 760.293C458.09 761.528 456.982 762.159 455.533 762.159C453.351 762.159 451.885 760.744 451.817 758.222H461.124V757.318C461.124 752.588 458.294 750.739 455.328 750.739C451.681 750.739 449.277 753.517 449.277 757.54C449.277 761.605 451.647 764.264 455.507 764.264ZM451.826 756.312C451.928 754.455 453.275 752.844 455.346 752.844C457.323 752.844 458.618 754.31 458.627 756.312H451.826ZM475.817 764.264C478.911 764.264 480.914 762.406 481.195 759.858H478.715C478.391 761.273 477.292 762.108 475.834 762.108C473.678 762.108 472.289 760.31 472.289 757.455C472.289 754.651 473.703 752.886 475.834 752.886C477.453 752.886 478.442 753.909 478.715 755.136H481.195C480.922 752.494 478.766 750.739 475.792 750.739C472.101 750.739 469.715 753.517 469.715 757.514C469.715 761.46 472.016 764.264 475.817 764.264ZM486.468 746.545H483.92V764H486.468V746.545ZM489.897 764H492.445V750.909H489.897V764ZM491.184 748.889C492.061 748.889 492.794 748.207 492.794 747.372C492.794 746.537 492.061 745.847 491.184 745.847C490.297 745.847 489.573 746.537 489.573 747.372C489.573 748.207 490.297 748.889 491.184 748.889ZM501.515 764.264C504.37 764.264 506.39 762.858 506.97 760.727L504.558 760.293C504.098 761.528 502.99 762.159 501.541 762.159C499.359 762.159 497.893 760.744 497.825 758.222H507.132V757.318C507.132 752.588 504.302 750.739 501.336 750.739C497.689 750.739 495.285 753.517 495.285 757.54C495.285 761.605 497.654 764.264 501.515 764.264ZM497.833 756.312C497.936 754.455 499.282 752.844 501.353 752.844C503.331 752.844 504.626 754.31 504.635 756.312H497.833ZM512.507 756.227C512.507 754.139 513.786 752.946 515.559 752.946C517.289 752.946 518.337 754.08 518.337 755.98V764H520.885V755.673C520.885 752.435 519.104 750.739 516.428 750.739C514.459 750.739 513.172 751.651 512.567 753.04H512.405V750.909H509.959V764H512.507V756.227ZM530.414 750.909H527.729V747.773H525.181V750.909H523.263V752.955H525.181V760.685C525.172 763.062 526.988 764.213 528.999 764.17C529.809 764.162 530.354 764.009 530.652 763.898L530.192 761.793C530.022 761.827 529.706 761.903 529.297 761.903C528.471 761.903 527.729 761.631 527.729 760.156V752.955H530.414V750.909Z" fill="white"/>
<path d="M269 539.5C269 527.074 279.074 517 291.5 517H459.5C471.926 517 482 527.074 482 539.5V539.5C482 551.926 471.926 562 459.5 562H291.5C279.074 562 269 551.926 269 539.5V539.5Z" fill="#242424"/>
<path d="M301.304 534.909H298.62V531.773H296.071V534.909H294.154V536.955H296.071V544.685C296.063 547.062 297.878 548.213 299.89 548.17C300.699 548.162 301.245 548.009 301.543 547.898L301.083 545.793C300.912 545.827 300.597 545.903 300.188 545.903C299.361 545.903 298.62 545.631 298.62 544.156V536.955H301.304V534.909ZM307.933 548.29C310.098 548.29 311.316 547.19 311.802 546.21H311.904V548H314.393V539.307C314.393 535.497 311.393 534.739 309.314 534.739C306.944 534.739 304.762 535.693 303.91 538.08L306.305 538.625C306.68 537.696 307.635 536.801 309.348 536.801C310.993 536.801 311.836 537.662 311.836 539.145V539.205C311.836 540.134 310.882 540.116 308.529 540.389C306.049 540.679 303.51 541.327 303.51 544.301C303.51 546.875 305.444 548.29 307.933 548.29ZM308.487 546.244C307.047 546.244 306.007 545.597 306.007 544.335C306.007 542.972 307.217 542.486 308.691 542.29C309.518 542.179 311.478 541.957 311.845 541.591V543.278C311.845 544.83 310.609 546.244 308.487 546.244ZM317.787 548H320.336V534.909H317.787V548ZM319.074 532.889C319.952 532.889 320.685 532.207 320.685 531.372C320.685 530.537 319.952 529.847 319.074 529.847C318.188 529.847 317.463 530.537 317.463 531.372C317.463 532.207 318.188 532.889 319.074 532.889ZM326.312 530.545H323.764V548H326.312V530.545ZM339.55 538.105C339.022 536.068 337.428 534.739 334.598 534.739C331.641 534.739 329.544 536.298 329.544 538.616C329.544 540.474 330.669 541.71 333.124 542.256L335.34 542.741C336.601 543.023 337.189 543.585 337.189 544.403C337.189 545.418 336.107 546.21 334.436 546.21C332.911 546.21 331.931 545.554 331.624 544.267L329.161 544.642C329.587 546.96 331.513 548.264 334.453 548.264C337.615 548.264 339.806 546.585 339.806 544.216C339.806 542.366 338.63 541.224 336.226 540.67L334.147 540.193C332.706 539.852 332.084 539.366 332.093 538.48C332.084 537.474 333.175 536.759 334.624 536.759C336.209 536.759 336.942 537.636 337.24 538.514L339.55 538.105ZM348.122 548.264C351.216 548.264 353.218 546.406 353.5 543.858H351.02C350.696 545.273 349.596 546.108 348.139 546.108C345.983 546.108 344.593 544.31 344.593 541.455C344.593 538.651 346.008 536.886 348.139 536.886C349.758 536.886 350.747 537.909 351.02 539.136H353.5C353.227 536.494 351.071 534.739 348.096 534.739C344.406 534.739 342.02 537.517 342.02 541.514C342.02 545.46 344.321 548.264 348.122 548.264ZM360.034 548.29C362.199 548.29 363.418 547.19 363.904 546.21H364.006V548H366.495V539.307C366.495 535.497 363.495 534.739 361.415 534.739C359.046 534.739 356.864 535.693 356.012 538.08L358.407 538.625C358.782 537.696 359.736 536.801 361.449 536.801C363.094 536.801 363.938 537.662 363.938 539.145V539.205C363.938 540.134 362.983 540.116 360.631 540.389C358.151 540.679 355.611 541.327 355.611 544.301C355.611 546.875 357.546 548.29 360.034 548.29ZM360.588 546.244C359.148 546.244 358.108 545.597 358.108 544.335C358.108 542.972 359.319 542.486 360.793 542.29C361.62 542.179 363.58 541.957 363.946 541.591V543.278C363.946 544.83 362.711 546.244 360.588 546.244ZM372.437 530.545H369.889V548H372.437V530.545ZM381.507 548.264C384.363 548.264 386.382 546.858 386.962 544.727L384.55 544.293C384.09 545.528 382.982 546.159 381.533 546.159C379.351 546.159 377.885 544.744 377.817 542.222H387.124V541.318C387.124 536.588 384.294 534.739 381.328 534.739C377.681 534.739 375.277 537.517 375.277 541.54C375.277 545.605 377.647 548.264 381.507 548.264ZM377.826 540.312C377.928 538.455 379.275 536.844 381.346 536.844C383.323 536.844 384.618 538.31 384.627 540.312H377.826ZM401.817 548.264C404.911 548.264 406.914 546.406 407.195 543.858H404.715C404.391 545.273 403.292 546.108 401.834 546.108C399.678 546.108 398.289 544.31 398.289 541.455C398.289 538.651 399.703 536.886 401.834 536.886C403.453 536.886 404.442 537.909 404.715 539.136H407.195C406.922 536.494 404.766 534.739 401.792 534.739C398.101 534.739 395.715 537.517 395.715 541.514C395.715 545.46 398.016 548.264 401.817 548.264ZM412.468 530.545H409.92V548H412.468V530.545ZM415.897 548H418.445V534.909H415.897V548ZM417.184 532.889C418.061 532.889 418.794 532.207 418.794 531.372C418.794 530.537 418.061 529.847 417.184 529.847C416.297 529.847 415.573 530.537 415.573 531.372C415.573 532.207 416.297 532.889 417.184 532.889ZM427.515 548.264C430.37 548.264 432.39 546.858 432.97 544.727L430.558 544.293C430.098 545.528 428.99 546.159 427.541 546.159C425.359 546.159 423.893 544.744 423.825 542.222H433.132V541.318C433.132 536.588 430.302 534.739 427.336 534.739C423.689 534.739 421.285 537.517 421.285 541.54C421.285 545.605 423.654 548.264 427.515 548.264ZM423.833 540.312C423.936 538.455 425.282 536.844 427.353 536.844C429.331 536.844 430.626 538.31 430.635 540.312H423.833ZM438.507 540.227C438.507 538.139 439.786 536.946 441.559 536.946C443.289 536.946 444.337 538.08 444.337 539.98V548H446.885V539.673C446.885 536.435 445.104 534.739 442.428 534.739C440.459 534.739 439.172 535.651 438.567 537.04H438.405V534.909H435.959V548H438.507V540.227ZM456.414 534.909H453.729V531.773H451.181V534.909H449.263V536.955H451.181V544.685C451.172 547.062 452.988 548.213 454.999 548.17C455.809 548.162 456.354 548.009 456.652 547.898L456.192 545.793C456.022 545.827 455.706 545.903 455.297 545.903C454.471 545.903 453.729 545.631 453.729 544.156V536.955H456.414V534.909Z" fill="white"/>
<path d="M561 894.5C561 882.074 571.074 872 583.5 872H751.5C763.926 872 774 882.074 774 894.5V894.5C774 906.926 763.926 917 751.5 917H583.5C571.074 917 561 906.926 561 894.5V894.5Z" fill="#242424"/>
<path d="M593.304 889.909H590.62V886.773H588.071V889.909H586.154V891.955H588.071V899.685C588.063 902.062 589.878 903.213 591.89 903.17C592.699 903.162 593.245 903.009 593.543 902.898L593.083 900.793C592.912 900.827 592.597 900.903 592.188 900.903C591.361 900.903 590.62 900.631 590.62 899.156V891.955H593.304V889.909ZM599.933 903.29C602.098 903.29 603.316 902.19 603.802 901.21H603.904V903H606.393V894.307C606.393 890.497 603.393 889.739 601.314 889.739C598.944 889.739 596.762 890.693 595.91 893.08L598.305 893.625C598.68 892.696 599.635 891.801 601.348 891.801C602.993 891.801 603.836 892.662 603.836 894.145V894.205C603.836 895.134 602.882 895.116 600.529 895.389C598.049 895.679 595.51 896.327 595.51 899.301C595.51 901.875 597.444 903.29 599.933 903.29ZM600.487 901.244C599.047 901.244 598.007 900.597 598.007 899.335C598.007 897.972 599.217 897.486 600.691 897.29C601.518 897.179 603.478 896.957 603.845 896.591V898.278C603.845 899.83 602.609 901.244 600.487 901.244ZM609.787 903H612.336V889.909H609.787V903ZM611.074 887.889C611.952 887.889 612.685 887.207 612.685 886.372C612.685 885.537 611.952 884.847 611.074 884.847C610.188 884.847 609.463 885.537 609.463 886.372C609.463 887.207 610.188 887.889 611.074 887.889ZM618.312 885.545H615.764V903H618.312V885.545ZM631.55 893.105C631.022 891.068 629.428 889.739 626.598 889.739C623.641 889.739 621.544 891.298 621.544 893.616C621.544 895.474 622.669 896.71 625.124 897.256L627.34 897.741C628.601 898.023 629.189 898.585 629.189 899.403C629.189 900.418 628.107 901.21 626.436 901.21C624.911 901.21 623.931 900.554 623.624 899.267L621.161 899.642C621.587 901.96 623.513 903.264 626.453 903.264C629.615 903.264 631.806 901.585 631.806 899.216C631.806 897.366 630.63 896.224 628.226 895.67L626.147 895.193C624.706 894.852 624.084 894.366 624.093 893.48C624.084 892.474 625.175 891.759 626.624 891.759C628.209 891.759 628.942 892.636 629.24 893.514L631.55 893.105ZM640.122 903.264C643.216 903.264 645.218 901.406 645.5 898.858H643.02C642.696 900.273 641.596 901.108 640.139 901.108C637.983 901.108 636.593 899.31 636.593 896.455C636.593 893.651 638.008 891.886 640.139 891.886C641.758 891.886 642.747 892.909 643.02 894.136H645.5C645.227 891.494 643.071 889.739 640.096 889.739C636.406 889.739 634.02 892.517 634.02 896.514C634.02 900.46 636.321 903.264 640.122 903.264ZM652.034 903.29C654.199 903.29 655.418 902.19 655.904 901.21H656.006V903H658.495V894.307C658.495 890.497 655.495 889.739 653.415 889.739C651.046 889.739 648.864 890.693 648.012 893.08L650.407 893.625C650.782 892.696 651.736 891.801 653.449 891.801C655.094 891.801 655.938 892.662 655.938 894.145V894.205C655.938 895.134 654.983 895.116 652.631 895.389C650.151 895.679 647.611 896.327 647.611 899.301C647.611 901.875 649.546 903.29 652.034 903.29ZM652.588 901.244C651.148 901.244 650.108 900.597 650.108 899.335C650.108 897.972 651.319 897.486 652.793 897.29C653.62 897.179 655.58 896.957 655.946 896.591V898.278C655.946 899.83 654.711 901.244 652.588 901.244ZM664.437 885.545H661.889V903H664.437V885.545ZM673.507 903.264C676.363 903.264 678.382 901.858 678.962 899.727L676.55 899.293C676.09 900.528 674.982 901.159 673.533 901.159C671.351 901.159 669.885 899.744 669.817 897.222H679.124V896.318C679.124 891.588 676.294 889.739 673.328 889.739C669.681 889.739 667.277 892.517 667.277 896.54C667.277 900.605 669.647 903.264 673.507 903.264ZM669.826 895.312C669.928 893.455 671.275 891.844 673.346 891.844C675.323 891.844 676.618 893.31 676.627 895.312H669.826ZM693.817 903.264C696.911 903.264 698.914 901.406 699.195 898.858H696.715C696.391 900.273 695.292 901.108 693.834 901.108C691.678 901.108 690.289 899.31 690.289 896.455C690.289 893.651 691.703 891.886 693.834 891.886C695.453 891.886 696.442 892.909 696.715 894.136H699.195C698.922 891.494 696.766 889.739 693.792 889.739C690.101 889.739 687.715 892.517 687.715 896.514C687.715 900.46 690.016 903.264 693.817 903.264ZM704.468 885.545H701.92V903H704.468V885.545ZM707.897 903H710.445V889.909H707.897V903ZM709.184 887.889C710.061 887.889 710.794 887.207 710.794 886.372C710.794 885.537 710.061 884.847 709.184 884.847C708.297 884.847 707.573 885.537 707.573 886.372C707.573 887.207 708.297 887.889 709.184 887.889ZM719.515 903.264C722.37 903.264 724.39 901.858 724.97 899.727L722.558 899.293C722.098 900.528 720.99 901.159 719.541 901.159C717.359 901.159 715.893 899.744 715.825 897.222H725.132V896.318C725.132 891.588 722.302 889.739 719.336 889.739C715.689 889.739 713.285 892.517 713.285 896.54C713.285 900.605 715.654 903.264 719.515 903.264ZM715.833 895.312C715.936 893.455 717.282 891.844 719.353 891.844C721.331 891.844 722.626 893.31 722.635 895.312H715.833ZM730.507 895.227C730.507 893.139 731.786 891.946 733.559 891.946C735.289 891.946 736.337 893.08 736.337 894.98V903H738.885V894.673C738.885 891.435 737.104 889.739 734.428 889.739C732.459 889.739 731.172 890.651 730.567 892.04H730.405V889.909H727.959V903H730.507V895.227ZM748.414 889.909H745.729V886.773H743.181V889.909H741.263V891.955H743.181V899.685C743.172 902.062 744.988 903.213 746.999 903.17C747.809 903.162 748.354 903.009 748.652 902.898L748.192 900.793C748.022 900.827 747.706 900.903 747.297 900.903C746.471 900.903 745.729 900.631 745.729 899.156V891.955H748.414V889.909Z" fill="white"/>
<path d="M817 894.5C817 882.074 827.074 872 839.5 872H1007.5C1019.93 872 1030 882.074 1030 894.5V894.5C1030 906.926 1019.93 917 1007.5 917H839.5C827.074 917 817 906.926 817 894.5V894.5Z" fill="#242424"/>
<path d="M849.304 889.909H846.62V886.773H844.071V889.909H842.154V891.955H844.071V899.685C844.063 902.062 845.878 903.213 847.89 903.17C848.699 903.162 849.245 903.009 849.543 902.898L849.083 900.793C848.912 900.827 848.597 900.903 848.188 900.903C847.361 900.903 846.62 900.631 846.62 899.156V891.955H849.304V889.909ZM855.933 903.29C858.098 903.29 859.316 902.19 859.802 901.21H859.904V903H862.393V894.307C862.393 890.497 859.393 889.739 857.314 889.739C854.944 889.739 852.762 890.693 851.91 893.08L854.305 893.625C854.68 892.696 855.635 891.801 857.348 891.801C858.993 891.801 859.836 892.662 859.836 894.145V894.205C859.836 895.134 858.882 895.116 856.529 895.389C854.049 895.679 851.51 896.327 851.51 899.301C851.51 901.875 853.444 903.29 855.933 903.29ZM856.487 901.244C855.047 901.244 854.007 900.597 854.007 899.335C854.007 897.972 855.217 897.486 856.691 897.29C857.518 897.179 859.478 896.957 859.845 896.591V898.278C859.845 899.83 858.609 901.244 856.487 901.244ZM865.787 903H868.336V889.909H865.787V903ZM867.074 887.889C867.952 887.889 868.685 887.207 868.685 886.372C868.685 885.537 867.952 884.847 867.074 884.847C866.188 884.847 865.463 885.537 865.463 886.372C865.463 887.207 866.188 887.889 867.074 887.889ZM874.312 885.545H871.764V903H874.312V885.545ZM887.55 893.105C887.022 891.068 885.428 889.739 882.598 889.739C879.641 889.739 877.544 891.298 877.544 893.616C877.544 895.474 878.669 896.71 881.124 897.256L883.34 897.741C884.601 898.023 885.189 898.585 885.189 899.403C885.189 900.418 884.107 901.21 882.436 901.21C880.911 901.21 879.931 900.554 879.624 899.267L877.161 899.642C877.587 901.96 879.513 903.264 882.453 903.264C885.615 903.264 887.806 901.585 887.806 899.216C887.806 897.366 886.63 896.224 884.226 895.67L882.147 895.193C880.706 894.852 880.084 894.366 880.093 893.48C880.084 892.474 881.175 891.759 882.624 891.759C884.209 891.759 884.942 892.636 885.24 893.514L887.55 893.105ZM896.122 903.264C899.216 903.264 901.218 901.406 901.5 898.858H899.02C898.696 900.273 897.596 901.108 896.139 901.108C893.983 901.108 892.593 899.31 892.593 896.455C892.593 893.651 894.008 891.886 896.139 891.886C897.758 891.886 898.747 892.909 899.02 894.136H901.5C901.227 891.494 899.071 889.739 896.096 889.739C892.406 889.739 890.02 892.517 890.02 896.514C890.02 900.46 892.321 903.264 896.122 903.264ZM908.034 903.29C910.199 903.29 911.418 902.19 911.904 901.21H912.006V903H914.495V894.307C914.495 890.497 911.495 889.739 909.415 889.739C907.046 889.739 904.864 890.693 904.012 893.08L906.407 893.625C906.782 892.696 907.736 891.801 909.449 891.801C911.094 891.801 911.938 892.662 911.938 894.145V894.205C911.938 895.134 910.983 895.116 908.631 895.389C906.151 895.679 903.611 896.327 903.611 899.301C903.611 901.875 905.546 903.29 908.034 903.29ZM908.588 901.244C907.148 901.244 906.108 900.597 906.108 899.335C906.108 897.972 907.319 897.486 908.793 897.29C909.62 897.179 911.58 896.957 911.946 896.591V898.278C911.946 899.83 910.711 901.244 908.588 901.244ZM920.437 885.545H917.889V903H920.437V885.545ZM929.507 903.264C932.363 903.264 934.382 901.858 934.962 899.727L932.55 899.293C932.09 900.528 930.982 901.159 929.533 901.159C927.351 901.159 925.885 899.744 925.817 897.222H935.124V896.318C935.124 891.588 932.294 889.739 929.328 889.739C925.681 889.739 923.277 892.517 923.277 896.54C923.277 900.605 925.647 903.264 929.507 903.264ZM925.826 895.312C925.928 893.455 927.275 891.844 929.346 891.844C931.323 891.844 932.618 893.31 932.627 895.312H925.826ZM949.817 903.264C952.911 903.264 954.914 901.406 955.195 898.858H952.715C952.391 900.273 951.292 901.108 949.834 901.108C947.678 901.108 946.289 899.31 946.289 896.455C946.289 893.651 947.703 891.886 949.834 891.886C951.453 891.886 952.442 892.909 952.715 894.136H955.195C954.922 891.494 952.766 889.739 949.792 889.739C946.101 889.739 943.715 892.517 943.715 896.514C943.715 900.46 946.016 903.264 949.817 903.264ZM960.468 885.545H957.92V903H960.468V885.545ZM963.897 903H966.445V889.909H963.897V903ZM965.184 887.889C966.061 887.889 966.794 887.207 966.794 886.372C966.794 885.537 966.061 884.847 965.184 884.847C964.297 884.847 963.573 885.537 963.573 886.372C963.573 887.207 964.297 887.889 965.184 887.889ZM975.515 903.264C978.37 903.264 980.39 901.858 980.97 899.727L978.558 899.293C978.098 900.528 976.99 901.159 975.541 901.159C973.359 901.159 971.893 899.744 971.825 897.222H981.132V896.318C981.132 891.588 978.302 889.739 975.336 889.739C971.689 889.739 969.285 892.517 969.285 896.54C969.285 900.605 971.654 903.264 975.515 903.264ZM971.833 895.312C971.936 893.455 973.282 891.844 975.353 891.844C977.331 891.844 978.626 893.31 978.635 895.312H971.833ZM986.507 895.227C986.507 893.139 987.786 891.946 989.559 891.946C991.289 891.946 992.337 893.08 992.337 894.98V903H994.885V894.673C994.885 891.435 993.104 889.739 990.428 889.739C988.459 889.739 987.172 890.651 986.567 892.04H986.405V889.909H983.959V903H986.507V895.227ZM1004.41 889.909H1001.73V886.773H999.181V889.909H997.263V891.955H999.181V899.685C999.172 902.062 1000.99 903.213 1003 903.17C1003.81 903.162 1004.35 903.009 1004.65 902.898L1004.19 900.793C1004.02 900.827 1003.71 900.903 1003.3 900.903C1002.47 900.903 1001.73 900.631 1001.73 899.156V891.955H1004.41V889.909Z" fill="white"/>
<rect x="639" y="460" width="322" height="161" rx="16" fill="#343433"/>
<circle cx="667" cy="488" r="12" fill="#FAF9F8"/>
<path d="M657.145 552.547H663.036V569H665.879V552.547H671.779V550.091H657.145V552.547ZM676.729 569.314C679.074 569.314 680.394 568.123 680.921 567.061H681.031V569H683.727V559.582C683.727 555.455 680.477 554.634 678.225 554.634C675.658 554.634 673.294 555.668 672.371 558.253L674.965 558.844C675.372 557.837 676.406 556.868 678.261 556.868C680.043 556.868 680.958 557.8 680.958 559.407V559.472C680.958 560.478 679.923 560.46 677.375 560.755C674.688 561.069 671.937 561.771 671.937 564.993C671.937 567.781 674.033 569.314 676.729 569.314ZM677.329 567.098C675.769 567.098 674.642 566.396 674.642 565.03C674.642 563.553 675.953 563.026 677.551 562.814C678.446 562.694 680.57 562.454 680.967 562.057V563.885C680.967 565.565 679.628 567.098 677.329 567.098ZM687.144 569H689.905V554.818H687.144V569ZM688.539 552.63C689.49 552.63 690.284 551.891 690.284 550.987C690.284 550.082 689.49 549.334 688.539 549.334C687.578 549.334 686.794 550.082 686.794 550.987C686.794 551.891 687.578 552.63 688.539 552.63ZM696.12 550.091H693.359V569H696.12V550.091ZM710.201 558.281C709.628 556.074 707.902 554.634 704.836 554.634C701.633 554.634 699.361 556.323 699.361 558.835C699.361 560.847 700.58 562.186 703.239 562.777L705.64 563.303C707.006 563.608 707.643 564.217 707.643 565.104C707.643 566.202 706.471 567.061 704.661 567.061C703.008 567.061 701.947 566.35 701.614 564.956L698.946 565.362C699.407 567.874 701.494 569.286 704.679 569.286C708.105 569.286 710.478 567.467 710.478 564.901C710.478 562.897 709.204 561.66 706.6 561.06L704.347 560.543C702.787 560.173 702.113 559.647 702.122 558.687C702.113 557.597 703.295 556.822 704.864 556.822C706.581 556.822 707.375 557.773 707.699 558.724L710.201 558.281ZM719.227 569.286C722.578 569.286 724.748 567.273 725.053 564.513H722.366C722.015 566.045 720.824 566.95 719.245 566.95C716.909 566.95 715.404 565.002 715.404 561.909C715.404 558.871 716.937 556.96 719.245 556.96C721 556.96 722.071 558.068 722.366 559.398H725.053C724.757 556.536 722.421 554.634 719.199 554.634C715.201 554.634 712.616 557.643 712.616 561.974C712.616 566.249 715.109 569.286 719.227 569.286ZM731.872 569.314C734.217 569.314 735.538 568.123 736.064 567.061H736.175V569H738.871V559.582C738.871 555.455 735.621 554.634 733.368 554.634C730.801 554.634 728.438 555.668 727.514 558.253L730.109 558.844C730.515 557.837 731.549 556.868 733.405 556.868C735.187 556.868 736.101 557.8 736.101 559.407V559.472C736.101 560.478 735.067 560.46 732.518 560.755C729.832 561.069 727.08 561.771 727.08 564.993C727.08 567.781 729.176 569.314 731.872 569.314ZM732.472 567.098C730.912 567.098 729.786 566.396 729.786 565.03C729.786 563.553 731.097 563.026 732.694 562.814C733.59 562.694 735.713 562.454 736.11 562.057V563.885C736.11 565.565 734.771 567.098 732.472 567.098ZM745.048 550.091H742.288V569H745.048V550.091ZM754.615 569.286C757.708 569.286 759.896 567.763 760.524 565.455L757.911 564.984C757.412 566.322 756.212 567.006 754.642 567.006C752.279 567.006 750.691 565.473 750.617 562.74H760.699V561.761C760.699 556.637 757.634 554.634 754.421 554.634C750.469 554.634 747.865 557.643 747.865 562.001C747.865 566.406 750.432 569.286 754.615 569.286ZM750.626 560.672C750.737 558.659 752.196 556.914 754.439 556.914C756.581 556.914 757.985 558.502 757.994 560.672H750.626ZM673.783 585.24C673.136 581.196 669.969 578.832 665.972 578.832C661.078 578.832 657.468 582.498 657.468 588.545C657.468 594.593 661.06 598.259 665.972 598.259C670.126 598.259 673.164 595.655 673.783 591.915L670.902 591.906C670.413 594.325 668.381 595.655 665.99 595.655C662.749 595.655 660.303 593.171 660.303 588.545C660.303 583.957 662.74 581.436 665.999 581.436C668.409 581.436 670.431 582.793 670.902 585.24H673.783ZM682.689 598.286C686.687 598.286 689.299 595.359 689.299 590.974C689.299 586.56 686.687 583.634 682.689 583.634C678.691 583.634 676.078 586.56 676.078 590.974C676.078 595.359 678.691 598.286 682.689 598.286ZM682.698 595.969C680.085 595.969 678.866 593.688 678.866 590.964C678.866 588.25 680.085 585.942 682.698 585.942C685.292 585.942 686.511 588.25 686.511 590.964C686.511 593.688 685.292 595.969 682.698 595.969ZM698.095 598.286C702.093 598.286 704.705 595.359 704.705 590.974C704.705 586.56 702.093 583.634 698.095 583.634C694.097 583.634 691.484 586.56 691.484 590.974C691.484 595.359 694.097 598.286 698.095 598.286ZM698.104 595.969C695.491 595.969 694.272 593.688 694.272 590.964C694.272 588.25 695.491 585.942 698.104 585.942C700.698 585.942 701.917 588.25 701.917 590.964C701.917 593.688 700.698 595.969 698.104 595.969ZM707.527 598H710.288V589.339C710.288 587.493 711.719 586.154 713.63 586.154C714.165 586.154 714.581 586.265 714.913 586.431L715.8 584.123C715.329 583.809 714.719 583.606 713.944 583.606C712.264 583.606 710.86 584.548 710.343 586.071H710.195V583.818H707.527V598ZM722.428 598.277C725.013 598.277 726.028 596.698 726.527 595.793H726.758V598H729.454V579.091H726.693V586.117H726.527C726.028 585.24 725.087 583.634 722.446 583.634C719.021 583.634 716.5 586.339 716.5 590.937C716.5 595.526 718.984 598.277 722.428 598.277ZM723.037 595.923C720.572 595.923 719.288 593.753 719.288 590.909C719.288 588.093 720.544 585.979 723.037 585.979C725.447 585.979 726.739 587.945 726.739 590.909C726.739 593.891 725.419 595.923 723.037 595.923ZM733.134 598H735.895V583.818H733.134V598ZM734.528 581.63C735.479 581.63 736.273 580.891 736.273 579.987C736.273 579.082 735.479 578.334 734.528 578.334C733.568 578.334 732.783 579.082 732.783 579.987C732.783 580.891 733.568 581.63 734.528 581.63ZM742.109 589.58C742.109 587.317 743.494 586.025 745.415 586.025C747.289 586.025 748.425 587.253 748.425 589.312V598H751.185V588.979C751.185 585.471 749.256 583.634 746.356 583.634C744.224 583.634 742.829 584.621 742.174 586.126H741.998V583.818H739.349V598H742.109V589.58ZM758.755 598.314C761.1 598.314 762.42 597.123 762.947 596.061H763.057V598H765.753V588.582C765.753 584.455 762.503 583.634 760.25 583.634C757.684 583.634 755.32 584.668 754.397 587.253L756.991 587.844C757.398 586.837 758.432 585.868 760.287 585.868C762.069 585.868 762.983 586.8 762.983 588.407V588.472C762.983 589.478 761.949 589.46 759.401 589.755C756.714 590.069 753.963 590.771 753.963 593.993C753.963 596.781 756.059 598.314 758.755 598.314ZM759.355 596.098C757.795 596.098 756.668 595.396 756.668 594.03C756.668 592.553 757.979 592.026 759.576 591.814C760.472 591.694 762.596 591.454 762.993 591.057V592.885C762.993 594.565 761.654 596.098 759.355 596.098ZM775.79 583.818H772.882V580.42H770.121V583.818H768.044V586.034H770.121V594.408C770.112 596.984 772.079 598.231 774.258 598.185C775.135 598.175 775.726 598.009 776.049 597.889L775.55 595.609C775.366 595.646 775.024 595.729 774.581 595.729C773.685 595.729 772.882 595.433 772.882 593.836V586.034H775.79V583.818ZM778.584 598H781.345V583.818H778.584V598ZM779.978 581.63C780.929 581.63 781.723 580.891 781.723 579.987C781.723 579.082 780.929 578.334 779.978 578.334C779.018 578.334 778.233 579.082 778.233 579.987C778.233 580.891 779.018 581.63 779.978 581.63ZM790.773 598.286C794.77 598.286 797.383 595.359 797.383 590.974C797.383 586.56 794.77 583.634 790.773 583.634C786.775 583.634 784.162 586.56 784.162 590.974C784.162 595.359 786.775 598.286 790.773 598.286ZM790.782 595.969C788.169 595.969 786.95 593.688 786.95 590.964C786.95 588.25 788.169 585.942 790.782 585.942C793.376 585.942 794.595 588.25 794.595 590.964C794.595 593.688 793.376 595.969 790.782 595.969ZM802.965 589.58C802.965 587.317 804.35 586.025 806.271 586.025C808.145 586.025 809.281 587.253 809.281 589.312V598H812.041V588.979C812.041 585.471 810.112 583.634 807.213 583.634C805.08 583.634 803.686 584.621 803.03 586.126H802.855V583.818H800.205V598H802.965V589.58ZM832.64 584.058H835.391C835.308 581.03 832.63 578.832 828.789 578.832C824.995 578.832 822.086 581.002 822.086 584.261C822.086 586.893 823.97 588.435 827.007 589.256L829.242 589.866C831.264 590.401 832.824 591.066 832.824 592.746C832.824 594.593 831.061 595.812 828.632 595.812C826.435 595.812 824.607 594.833 824.441 592.774H821.578C821.763 596.2 824.413 598.314 828.651 598.314C833.092 598.314 835.649 595.978 835.649 592.774C835.649 589.367 832.612 588.047 830.211 587.456L828.365 586.976C826.887 586.597 824.921 585.905 824.93 584.095C824.93 582.489 826.398 581.298 828.725 581.298C830.894 581.298 832.436 582.313 832.64 584.058ZM844.689 598.286C847.782 598.286 849.971 596.763 850.598 594.455L847.986 593.984C847.487 595.322 846.287 596.006 844.717 596.006C842.353 596.006 840.765 594.473 840.691 591.74H850.774V590.761C850.774 585.637 847.709 583.634 844.495 583.634C840.544 583.634 837.94 586.643 837.94 591.001C837.94 595.406 840.507 598.286 844.689 598.286ZM840.701 589.672C840.812 587.659 842.27 585.914 844.514 585.914C846.656 585.914 848.059 587.502 848.069 589.672H840.701ZM853.577 598H856.338V589.339C856.338 587.484 857.769 586.145 859.726 586.145C860.299 586.145 860.945 586.246 861.166 586.311V583.67C860.889 583.634 860.345 583.606 859.994 583.606C858.332 583.606 856.91 584.548 856.393 586.071H856.245V583.818H853.577V598ZM875.859 583.818H872.895L869.313 594.732H869.165L865.574 583.818H862.61L867.762 598H870.716L875.859 583.818ZM883.798 598.286C886.891 598.286 889.079 596.763 889.707 594.455L887.094 593.984C886.596 595.322 885.395 596.006 883.826 596.006C881.462 596.006 879.874 594.473 879.8 591.74H889.883V590.761C889.883 585.637 886.817 583.634 883.604 583.634C879.652 583.634 877.049 586.643 877.049 591.001C877.049 595.406 879.616 598.286 883.798 598.286ZM879.809 589.672C879.92 587.659 881.379 585.914 883.623 585.914C885.765 585.914 887.168 587.502 887.177 589.672H879.809ZM892.686 598H895.446V589.339C895.446 587.493 896.877 586.154 898.789 586.154C899.324 586.154 899.74 586.265 900.072 586.431L900.958 584.123C900.487 583.809 899.878 583.606 899.103 583.606C897.422 583.606 896.019 584.548 895.502 586.071H895.354V583.818H892.686V598Z" fill="#FAF9F8"/>
<path d="M687.407 845.554L754.614 660.905M754.614 660.905L761.189 675.004M754.614 660.905L740.516 667.479" stroke="#4D78C8" stroke-width="3"/>
<path d="M687.407 239.762L754.614 424.412M754.614 424.412L761.189 410.313M754.614 424.412L740.516 417.837" stroke="#4D78C8" stroke-width="3"/>
<path d="M910.544 845.554L843.337 660.905M843.337 660.905L836.762 675.004M843.337 660.905L857.435 667.479" stroke="#4D78C8" stroke-width="3"/>
<path d="M910.544 239.762L843.337 424.412M843.337 424.412L836.762 410.313M843.337 424.412L857.435 417.837" stroke="#4D78C8" stroke-width="3"/>
</svg>
